<svg xmlns="http://www.w3.org/2000/svg" viewBox="0 0 734.49 339.72"><defs><style>.cls-1{fill:#3f3d56;}.cls-2{fill:#d0cde1;}.cls-3,.cls-6{fill:#fff;}.cls-3{opacity:0.9;}.cls-4{fill:#363062;}.cls-5{fill:#2f2e41;}.cls-7{fill:#f2f2f2;}.cls-8{fill:#e6e6e6;}</style></defs><title>test_1</title><g id="Layer_2" data-name="Layer 2"><g id="layer1"><path class="cls-1" d="M65.92,323.41l-1-.37c-.21-.08-21.84-8.36-32-27.15s-5.16-41.4-5.11-41.63l.23-1,1,.37c.22.09,21.84,8.37,32,27.16s5.17,41.4,5.12,41.62ZM34.59,295c8.56,15.88,25.65,24,30,25.88.82-4.64,3.4-23.4-5.15-39.27s-25.65-24-30-25.88C28.61,260.39,26,279.15,34.59,295Z"/><path class="cls-2" d="M40.71,289.3c18.2,11,25.21,32.71,25.21,32.71s-22.5,4-40.71-7S0,282.35,0,282.35,22.5,278.35,40.71,289.3Z"/><path class="cls-1" d="M623.27,4.18h-203V0h-92V4.18H124.42a13.73,13.73,0,0,0-13.73,13.73h0v278a13.73,13.73,0,0,0,13.73,13.74H623.27A13.74,13.74,0,0,0,637,295.86h0V17.91A13.73,13.73,0,0,0,623.27,4.18Z"/><rect class="cls-3" x="129.1" y="28.45" width="489.49" height="276.13"/><circle class="cls-4" cx="373.42" cy="15.9" r="5.02"/><path class="cls-1" d="M590.49,63.59h-23.2V40.39h23.2Zm-22.19-1h21.18V41.4H568.3Z"/><path class="cls-1" d="M650.74,299.55H603v-3.44a.68.68,0,0,0-.68-.68H585.91a.68.68,0,0,0-.68.68h0v3.44H575v-3.44a.68.68,0,0,0-.68-.68H557.93a.68.68,0,0,0-.68.68h0v3.44H547v-3.44a.68.68,0,0,0-.68-.68H530a.68.68,0,0,0-.68.68h0v3.44H519v-3.44a.69.69,0,0,0-.68-.68H502a.68.68,0,0,0-.68.68h0v3.44H491.05v-3.44a.69.69,0,0,0-.68-.68H474a.68.68,0,0,0-.68.68h0v3.44H463.07v-3.44a.69.69,0,0,0-.68-.68H446a.68.68,0,0,0-.68.68h0v3.44H435.09v-3.44a.69.69,0,0,0-.68-.68H306.11a.69.69,0,0,0-.69.68h0v3.44H295.19v-3.44a.69.69,0,0,0-.69-.68H278.13a.69.69,0,0,0-.69.68h0v3.44H267.21v-3.44a.69.69,0,0,0-.69-.68H250.14a.69.69,0,0,0-.68.68h0v3.44H239.23v-3.44a.69.69,0,0,0-.69-.68H222.16a.69.69,0,0,0-.68.68h0v3.44H211.25v-3.44a.69.69,0,0,0-.69-.68H194.18a.69.69,0,0,0-.68.68h0v3.44H183.26v-3.44a.68.68,0,0,0-.68-.68H166.2a.69.69,0,0,0-.68.68h0v3.44H155.28v-3.44a.68.68,0,0,0-.68-.68H138.22a.69.69,0,0,0-.68.68h0v3.44H106.15a16.38,16.38,0,0,0-16.38,16.38h0v7.41a16.38,16.38,0,0,0,16.38,16.38H650.74a16.38,16.38,0,0,0,16.38-16.38v-7.41A16.38,16.38,0,0,0,650.74,299.55Z"/><rect class="cls-1" x="22.4" y="322.91" width="712.09" height="2.17"/><path class="cls-1" d="M588.33,182.31H430.73V92.59h157.6Zm-156-1.56H586.77V94.15H432.29Z"/><path class="cls-1" d="M299.66,200.26H159.22V112.87H299.66ZM160.78,198.7H298.09V114.43H160.78Z"/><path class="cls-2" d="M224.83,166.71l-.14-1.75c-.4-3.62.81-7.58,4.16-11.6,3-3.56,4.7-6.18,4.7-9.2,0-3.42-2.15-5.7-6.37-5.77a12,12,0,0,0-6.78,2.08l-1.61-4.22a17.58,17.58,0,0,1,9.59-2.69c7.72,0,11.21,4.77,11.21,9.86,0,4.57-2.55,7.86-5.77,11.68-2.95,3.49-4,6.44-3.82,9.86l.06,1.75Zm-1.48,9.39a4,4,0,0,1,3.7-4.22h.33a3.92,3.92,0,0,1,4,4.23,4,4,0,1,1-8,.33Z"/><path class="cls-2" d="M504.92,147.2l-.13-1.74c-.4-3.63.8-7.58,4.16-11.61,3-3.56,4.7-6.17,4.7-9.19,0-3.42-2.15-5.71-6.38-5.77a11.89,11.89,0,0,0-6.78,2.08l-1.61-4.23a17.62,17.62,0,0,1,9.6-2.68c7.72,0,11.2,4.76,11.2,9.86,0,4.56-2.55,7.85-5.77,11.67-2.95,3.49-4,6.45-3.82,9.87l.07,1.74Zm-1.47,9.4a4,4,0,0,1,3.69-4.22h.33a3.91,3.91,0,0,1,4,4.23,4,4,0,0,1-8,.33A1.82,1.82,0,0,1,503.45,156.6Z"/><circle class="cls-5" cx="376.6" cy="203.52" r="67.33"/><polygon class="cls-5" points="350.6 295.71 330.47 292.07 337 250.04 357.13 253.69 350.6 295.71"/><rect class="cls-5" x="365.73" y="266.96" width="36.65" height="20.45" transform="translate(42.89 605.71) rotate(-79.74)"/><ellipse class="cls-5" cx="387.59" cy="295.63" rx="6.39" ry="17.04" transform="translate(21.12 617.06) rotate(-78.59)"/><ellipse class="cls-5" cx="345.49" cy="295.67" rx="6.39" ry="17.04" transform="matrix(0.13, -0.99, 0.99, 0.13, 7, 599.34)"/><circle class="cls-6" cx="381.31" cy="187.05" r="23.01"/><circle class="cls-1" cx="390.77" cy="178.8" r="7.67"/><path class="cls-6" d="M323.49,130.27c-1-24.92,20.47-46,48-47.15s50.64,18.18,51.65,43.11-18.11,30.58-45.63,31.7S324.5,155.2,323.49,130.27Z"/><ellipse class="cls-5" cx="438.77" cy="191.25" rx="33.66" ry="10.57" transform="translate(-31.64 102.86) rotate(-12.91)"/><ellipse class="cls-5" cx="306.61" cy="213.23" rx="33.66" ry="10.57" transform="translate(-39.89 73.89) rotate(-12.91)"/><path class="cls-6" d="M358.11,230.05a15.34,15.34,0,1,0,30.19,5.46c1.51-8.33-4.94-11.28-13.27-12.79S359.62,221.71,358.11,230.05Z"/><rect class="cls-2" x="120.57" y="10.24" width="110.7" height="105.3"/><rect class="cls-6" x="133.15" y="22.82" width="85.54" height="65.41"/><rect class="cls-7" x="133.06" y="95.95" width="46.53" height="2.45"/><rect class="cls-7" x="133.06" y="103.3" width="46.53" height="2.45"/><circle class="cls-1" cx="148.37" cy="55.54" r="9.8"/><circle class="cls-4" cx="175.92" cy="55.54" r="9.8"/><circle class="cls-8" cx="203.47" cy="55.54" r="9.8" transform="translate(116.05 247.49) rotate(-80.78)"/><circle class="cls-1" cx="175.92" cy="16.36" r="4.9"/><rect class="cls-2" x="173.22" y="214.13" width="110.7" height="105.3"/><rect class="cls-6" x="185.8" y="226.71" width="85.54" height="65.41"/><rect class="cls-4" x="204.63" y="237.46" width="29.99" height="29.99"/><path class="cls-1" d="M216.11,245v36.42h36.41V245Zm34.83,34.84H217.69V246.54h33.25Z"/><rect class="cls-7" x="185.72" y="298.62" width="46.53" height="2.45"/><circle class="cls-1" cx="228.57" cy="220.26" r="4.9"/><rect class="cls-2" x="461.44" y="182.61" width="110.7" height="105.3"/><rect class="cls-6" x="474.02" y="195.19" width="85.54" height="65.41"/><rect class="cls-1" x="507.59" y="246.4" width="18.4" height="5.45"/><rect class="cls-1" x="485.34" y="203.94" width="62.9" height="2.34"/><rect class="cls-1" x="485.34" y="211.34" width="62.9" height="2.34"/><rect class="cls-1" x="485.34" y="218.74" width="62.9" height="2.34"/><rect class="cls-1" x="485.34" y="226.14" width="62.9" height="2.34"/><rect class="cls-1" x="485.34" y="233.54" width="62.9" height="2.34"/><rect class="cls-7" x="473.94" y="267.1" width="46.53" height="2.45"/><rect class="cls-7" x="473.94" y="273.22" width="64.9" height="2.45"/><circle class="cls-1" cx="516.79" cy="188.73" r="4.9"/></g></g></svg>