<svg xmlns="http://www.w3.org/2000/svg" xmlns:xlink="http://www.w3.org/1999/xlink" viewBox="0 0 409.2 300"><defs><style>.cls-1,.cls-5{fill:#363062;}.cls-1,.cls-10,.cls-2{opacity:0.1;}.cls-1,.cls-16,.cls-19,.cls-2,.cls-9{isolation:isolate;}.cls-3{fill:#f5f5fb;}.cls-4{fill:#f7f7fd;}.cls-6{fill:none;stroke:#565987;stroke-miterlimit:10;stroke-width:0.39px;}.cls-7{fill:#ffd037;}.cls-8{fill:#a8a8a8;}.cls-9{opacity:0.2;}.cls-11{fill:url(#linear-gradient);}.cls-12{fill:#db8b8b;}.cls-13{fill:#c17174;}.cls-14{fill:#474463;}.cls-15{fill:#ff748e;}.cls-16{opacity:0.05;}.cls-17{fill:#464353;}.cls-18{fill:#fc6681;}.cls-19{fill:#3acc6c;opacity:0.7;}</style><linearGradient id="linear-gradient" x1="-4891.09" y1="-4065.76" x2="-4891.09" y2="-3956.21" gradientTransform="translate(-4606.09 -3842.76) rotate(180)" gradientUnits="userSpaceOnUse"><stop offset="0" stop-color="gray" stop-opacity="0.25"/><stop offset="0.54" stop-color="gray" stop-opacity="0.12"/><stop offset="1" stop-color="gray" stop-opacity="0.1"/></linearGradient></defs><title>data</title><g id="Layer_2" data-name="Layer 2"><g id="layer1"><path class="cls-1" d="M133.47,190.34c13.54-5.32,34.78-6.41,54.12-6,60.74,1.33,115.57,14.26,163,28.9,17.17,5.3,34.07,11,45.22,18.31,22.69,14.85,16,35.42-15.59,47.66-10.73,4.16-23.74,7.36-37.1,10.18-23.76,5-49.38,9.06-76.34,10.23a565.17,565.17,0,0,1-57.79-1c-53.39-3.2-105.8-10.25-149.72-22.35C40,271,21.83,264.4,13.9,255.82S11,236.38,30.71,231.3c8.14-2.1,17.87-3.05,27.39-3.94,14-1.31,28.26-2.6,40.91-5.27,13.07-2.75,28.54-8.07,26-14.16C122.18,201.39,120,195.66,133.47,190.34Z"/><path class="cls-2" d="M195.15,11.68l-1.48,85.68s53.47,0,99,14.77l.89-86.58S220.55,8.14,195.15,11.68Z"/><path class="cls-3" d="M194.37,10.52,192.9,96.19s53.46,0,99,14.77l.89-86.57S219.78,7,194.37,10.52Z"/><path class="cls-2" d="M172.38,11.61l1.47,85.68s-53.47,0-99,14.77L74,25.51S147,8.07,172.38,11.61Z"/><path class="cls-3" d="M173.15,10.45l1.48,85.68s-53.47,0-99,14.77l-.89-86.55S147.75,6.91,173.15,10.45Z"/><path class="cls-2" d="M306.42,37.77v84.78s17.45-2.07,54.06,43.13l3.25-84.78S325.62,39.84,306.42,37.77Z"/><path class="cls-3" d="M305.65,37v84.78s17.44-2.06,54.05,43.13L363,80.12S324.85,39.06,305.65,37Z"/><path class="cls-2" d="M62.05,40.28v84.79S44.61,123,8,168.2L4.75,83.42S42.85,42.36,62.05,40.28Z"/><path class="cls-3" d="M62.83,39.12V123.9S45.38,121.84,8.77,167L5.52,82.25S43.62,41.19,62.83,39.12Z"/><path class="cls-4" d="M259,182.08c0,2.89-18.34,19.58-60.09,19.58s-64.35-16.11-64.35-19,23.38,4.27,65.13,4.27S259,179.19,259,182.08Z"/><ellipse class="cls-1" cx="122.55" cy="141.69" rx="4.44" ry="0.61"/><ellipse class="cls-1" cx="105.53" cy="143.42" rx="4.44" ry="0.61"/><ellipse class="cls-1" cx="85.5" cy="141.09" rx="4.44" ry="0.61"/><ellipse class="cls-1" cx="112.34" cy="148.33" rx="3.16" ry="0.43"/><ellipse class="cls-1" cx="94.69" cy="147.9" rx="3.16" ry="0.43"/><path class="cls-5" d="M105.44,143.28s6.23-20.41-1-28.59c-5.39-6.12-11.51-5.4-14.22-4.63A5.09,5.09,0,0,0,87,112.78c-1,2.06-.78,5.43,6,9.33,11.32,6.56,12,15.55,12,15.55Z"/><path class="cls-6" d="M91.2,113s18.36,5.74,14.24,30.32"/><path class="cls-6" d="M101.92,115s-2.53,1.7-1.73,4.26"/><path class="cls-6" d="M93,116.53a3.18,3.18,0,0,1,3.42-.7"/><path class="cls-6" d="M100.31,124.44s2.72-1.38,3.42.34"/><path class="cls-6" d="M107,127.31s-2-.16-2.07.81"/><path class="cls-5" d="M105.69,143.45s-7.29-14.84-9.3-14.52c-1,.16-1.39,1.09-1.59,2a5.93,5.93,0,0,0,.39,3.62A16.07,16.07,0,0,0,105.69,143.45Z"/><path class="cls-6" d="M96.44,131.75s7.65,11.1,9.14,11.59"/><line class="cls-6" x1="95.74" y1="133.48" x2="97.53" y2="133.48"/><line class="cls-6" x1="97.88" y1="137.54" x2="100.68" y2="137.66"/><line class="cls-6" x1="99.59" y1="134.29" x2="99.28" y2="135.75"/><line class="cls-6" x1="102.57" y1="138.73" x2="102.51" y2="140.06"/><path class="cls-5" d="M105.47,143.45s7.3-14.84,9.31-14.52c1,.16,1.39,1.09,1.59,2a6,6,0,0,1-.39,3.62A16.07,16.07,0,0,1,105.47,143.45Z"/><path class="cls-6" d="M114.72,131.75s-7.66,11.1-9.14,11.59"/><line class="cls-6" x1="115.42" y1="133.48" x2="113.64" y2="133.48"/><line class="cls-6" x1="113.28" y1="137.54" x2="110.48" y2="137.66"/><line class="cls-6" x1="111.58" y1="134.29" x2="111.88" y2="135.75"/><line class="cls-6" x1="108.6" y1="138.73" x2="108.65" y2="140.06"/><path class="cls-5" d="M93,146.91a1.3,1.3,0,0,1-.42-.63.56.56,0,0,1,.29-.63c.27-.11.56.08.78.27a1,1,0,0,0,.74.36,1.17,1.17,0,0,1-.35-1.06.55.55,0,0,1,.1-.22c.15-.16.42-.09.6,0a2.24,2.24,0,0,1,.72,1.85,3.3,3.3,0,0,0,0-.77.77.77,0,0,1,.28-.68.86.86,0,0,1,.44-.1.88.88,0,0,1,.71.2.71.71,0,0,1,0,.87,3,3,0,0,1-.73.59,1.58,1.58,0,0,0-.53.5.19.19,0,0,0,0,.09H93.93A4.47,4.47,0,0,1,93,146.91Z"/><path class="cls-5" d="M120.75,140.94a1.28,1.28,0,0,1-.42-.63.55.55,0,0,1,.29-.64.84.84,0,0,1,.78.27,1,1,0,0,0,.74.36,1.12,1.12,0,0,1-.35-1.06.44.44,0,0,1,.1-.22c.15-.16.41-.09.59,0a2.22,2.22,0,0,1,.72,1.86,3.39,3.39,0,0,0,0-.78.78.78,0,0,1,.29-.67.8.8,0,0,1,.43-.1.86.86,0,0,1,.71.2.72.72,0,0,1,0,.87,2.8,2.8,0,0,1-.74.58,1.66,1.66,0,0,0-.52.5.36.36,0,0,0,0,.09h-1.59A4.61,4.61,0,0,1,120.75,140.94Z"/><path class="cls-5" d="M111.48,146.91a1.3,1.3,0,0,1-.42-.63.56.56,0,0,1,.3-.63c.26-.11.55.08.77.27a1,1,0,0,0,.75.36,1.12,1.12,0,0,1-.35-1.06.43.43,0,0,1,.09-.22c.15-.16.42-.09.6,0a2.21,2.21,0,0,1,.72,1.85,3.3,3.3,0,0,0,0-.77.8.8,0,0,1,.29-.68,1.16,1.16,0,0,1,1.14.1.69.69,0,0,1,0,.87,2.46,2.46,0,0,1-.73.59,1.46,1.46,0,0,0-.52.5.36.36,0,0,0,0,.09h-1.59A4.6,4.6,0,0,1,111.48,146.91Z"/><path class="cls-5" d="M85.2,134.83s-.6.78.27,1.94,1.59,2.17,1.3,2.9c0,0-1.31-2.18-2.38-2.21S84,136.14,85.2,134.83Z"/><path class="cls-2" d="M85.2,134.83a.64.64,0,0,0-.12.25c-1,1.22-1.6,2.36-.6,2.39s2,1.7,2.32,2.12a.16.16,0,0,1,0,.09s-1.31-2.18-2.38-2.21S84,136.14,85.2,134.83Z"/><path class="cls-7" d="M84.1,135.82c0,.28,0,.5.07.5s.07-.22.07-.5,0-.14-.08-.14S84.1,135.55,84.1,135.82Z"/><path class="cls-7" d="M83.72,136.15c.24.13.45.21.47.18s-.16-.17-.39-.3-.14,0-.16,0S83.48,136,83.72,136.15Z"/><path class="cls-5" d="M88.35,134.83s.6.78-.27,1.94-1.59,2.17-1.3,2.9c0,0,1.31-2.18,2.38-2.21S89.53,136.14,88.35,134.83Z"/><path class="cls-2" d="M88.35,134.83a1.15,1.15,0,0,1,.12.25c1,1.22,1.6,2.36.6,2.39s-2,1.7-2.33,2.12l0,.09s1.31-2.18,2.38-2.21S89.53,136.14,88.35,134.83Z"/><path class="cls-7" d="M89.46,135.82c0,.28,0,.5-.07.5a1.05,1.05,0,0,1-.07-.5c0-.27,0-.14.08-.14S89.46,135.55,89.46,135.82Z"/><path class="cls-7" d="M89.85,136.15c-.24.13-.45.21-.47.18s.16-.17.39-.3.15,0,.17,0S90.08,136,89.85,136.15Z"/><path class="cls-8" d="M89.27,139.58a6.22,6.22,0,0,1-2.17-.4c-.5-.36-2.56-.78-2.68-.22s-2.5,2.85-.62,2.87a16.22,16.22,0,0,0,4.86-.6C89.16,140.93,89.27,139.58,89.27,139.58Z"/><path class="cls-9" d="M83.76,141.63a16.59,16.59,0,0,0,4.87-.6c.39-.23.53-1.07.58-1.45h.06s-.11,1.34-.61,1.65a15.92,15.92,0,0,1-4.86.59c-.54,0-.73-.19-.72-.48C83.15,141.52,83.36,141.62,83.76,141.63Z"/><ellipse class="cls-1" cx="75.66" cy="192.44" rx="13.46" ry="1.99"/><ellipse class="cls-1" cx="113.26" cy="208.91" rx="13.46" ry="1.99"/><ellipse class="cls-1" cx="57.95" cy="227.64" rx="13.46" ry="1.99"/><ellipse class="cls-1" cx="343.15" cy="268.8" rx="13.46" ry="1.99"/><ellipse class="cls-1" cx="190.38" cy="223.04" rx="8.91" ry="1"/><ellipse class="cls-1" cx="317.93" cy="171.86" rx="8.91" ry="1"/><ellipse class="cls-1" cx="248.53" cy="247.46" rx="8.91" ry="1"/><ellipse class="cls-1" cx="171.6" cy="240.89" rx="8.91" ry="1"/><ellipse class="cls-1" cx="99.5" cy="238.3" rx="8.91" ry="1"/><ellipse class="cls-1" cx="80.72" cy="256.15" rx="8.91" ry="1"/><g class="cls-10"><ellipse cx="197.25" cy="92.85" rx="58.97" ry="26.32"/><path d="M257.25,102.26c-2.61,13.72-28.39,24.49-59.82,24.49-31.7,0-57.66-11-59.88-24.85h-.22v22.37c10.36,10.83,33.31,18.36,59.95,18.36s49.59-7.53,60-18.36Z"/><path d="M257.25,129.47c-2.61,13.72-28.39,24.5-59.82,24.5-31.7,0-57.66-11-59.88-24.86h-.22v22.37c10.36,10.83,33.31,18.36,59.95,18.36s49.59-7.53,60-18.36Z"/><path d="M257.25,159.4c-2.61,13.73-28.39,24.5-59.82,24.5-31.7,0-57.66-11-59.88-24.85h-.22v24.12a3.71,3.71,0,0,0,1.19,2.74c10.85,10,33.1,13.87,58.76,13.87s47.9-3.91,58.77-13.87a3.76,3.76,0,0,0,1.2-2.74Z"/></g><ellipse class="cls-5" cx="197.25" cy="91.3" rx="58.97" ry="26.32"/><path class="cls-5" d="M257.25,100.71c-2.61,13.72-28.39,24.49-59.82,24.49-31.7,0-57.66-11-59.88-24.85h-.22v22.36c10.36,10.84,33.31,18.37,59.95,18.37s49.59-7.53,60-18.37Z"/><path class="cls-5" d="M257.25,127.92c-2.61,13.72-28.39,24.5-59.82,24.5-31.7,0-57.66-11-59.88-24.86h-.22v22.37c10.36,10.83,33.31,18.36,59.95,18.36s49.59-7.53,60-18.36Z"/><path class="cls-5" d="M257.25,157.85c-2.61,13.73-28.39,24.5-59.82,24.5-31.7,0-57.66-11-59.88-24.85h-.22v24.12a3.67,3.67,0,0,0,1.19,2.73c10.85,10,33.1,13.88,58.76,13.88s47.9-3.91,58.77-13.88a3.72,3.72,0,0,0,1.2-2.73Z"/><ellipse class="cls-1" cx="284.18" cy="221.46" rx="22.1" ry="3.98"/><path class="cls-11" d="M271.77,170.78a4.57,4.57,0,0,0,5.08-.33l0,3.14c.15,2.16,2.82,10,2.82,10l1.88,6.46a50.73,50.73,0,0,1,2.07,14.06,13.28,13.28,0,0,0,.6,4.43c1,2.71-.39,6.2-1,7.49a28,28,0,0,1-3.1.87c-.09,0-.19.05-.28.09v0s-2.82,1.12-4.08,1a1.1,1.1,0,0,0-.77,1.92,6,6,0,0,1-1.88.24c-1.25-.15-1.88,2,.47,2.62s15.69,0,15.69,0a1.89,1.89,0,0,0,1-2.09l1.66-.07s2.36-1.07,0-4l-.12.09-.5-1.48v-2s3-14.35,2-16-1.45-10.34-1.45-10.34l.33-9.38a22.17,22.17,0,0,0,1.51-6.65,14.22,14.22,0,0,0,.6-3.16c0-.51.07-1,.09-1.59a10.53,10.53,0,0,0-.58-3.55,36.35,36.35,0,0,1,3.56-4.45,4.57,4.57,0,0,0,1.41-4l-.77-5.24-1.89-8.91c.24-2.48-.27-3.91-.85-4.71.14-.81.27-1.6.36-2.41a30.71,30.71,0,0,0-.55-10.47,7.09,7.09,0,0,0-1.48-3.33c-.95-1-2.5-1.65-2.85-3a8.65,8.65,0,0,0-.22-1c-.34-.88-1.43-1.21-2.38-1.32a13,13,0,0,0-5.79.3A7.07,7.07,0,0,0,279,117a2.33,2.33,0,0,0-.12,2.58,6,6,0,0,0,3.47,7.64c0,.12.07.23.1.35a5.67,5.67,0,0,1,.15.84l-.09,1.63-.05.23a39.53,39.53,0,0,0-3.95,2c.94,1.39-.15,7.24-.15,7.24-2.36,1.39-4.71,4.93-2.2,8.63a9.23,9.23,0,0,1,1.1,7.7l-.39,6h0l-.08,1.21h0l0,.46h.07v.49a7.3,7.3,0,0,0-3.67,2.73,9.94,9.94,0,0,1-1.64,2,1.21,1.21,0,0,0-.13,1.71A1.18,1.18,0,0,0,271.77,170.78Zm18.94-16a5.69,5.69,0,0,1,.56-3h1.11a5.86,5.86,0,0,0,.13.73C292.83,153.85,291.56,154.5,290.71,154.78Z"/><path class="cls-12" d="M291,214.48l.6,1.81-2,2-6.49,1.53-4.68-.46.31-1.66h0a2,2,0,0,1,1.48-1.46c1.94-.45,5.59-1.48,6.36-2.91Z"/><path class="cls-2" d="M291,214.48l.6,1.81-2,2-6.49,1.53-4.68-.46.31-1.66h0a2,2,0,0,1,1.48-1.46c1.94-.45,5.59-1.48,6.36-2.91Z"/><path class="cls-13" d="M280,218.85l.91-1.2-.91-1.4s-2.71,1.1-3.92.94-1.81,2,.45,2.57,15.09,0,15.09,0,2.27-1.06,0-3.93l-2,1.52s-3.32,1.81-5,1.5Z"/><path class="cls-12" d="M275.93,221.42l4.68.45,6.49-1.51,2-2-.16-.48-.22-.67-.22-.66-4.39-1.21a2.53,2.53,0,0,1-.89.89,18.74,18.74,0,0,1-5.47,2l-.19,0a2.11,2.11,0,0,0-.77.47,2,2,0,0,0-.54.94Z"/><path class="cls-2" d="M275.93,221.42l4.68.45,6.49-1.51,2-2-.16-.48-1.8,1.39s-3.32,1.81-5,1.51h-4.68l.9-1.21-.81-1.26a2.15,2.15,0,0,0-.78.47,2,2,0,0,0-.53.94Z"/><path class="cls-13" d="M277.44,221l.9-1.21-.9-1.4s-2.72,1.1-3.93.95-1.81,2,.46,2.56,15.09,0,15.09,0,2.26-1.05,0-3.92l-2,1.51s-3.33,1.81-5,1.51Z"/><path class="cls-12" d="M281.21,133.43s7.24.78,6.2-2.26a5.28,5.28,0,0,1-.22-2.67,7.3,7.3,0,0,1,1.27-3.07l-6.79,1.06a8.58,8.58,0,0,1,.93,2.18A4.47,4.47,0,0,1,281.21,133.43Z"/><path class="cls-14" d="M293.59,167.83s-.16,6.49-1.66,9.66l-.31,9.21s.45,8.45,1.36,10.11-2,15.69-2,15.69v2.42s-4.83,1.81-6.2-.3l1.35-18-.6-24.9Z"/><path class="cls-2" d="M293.59,167.83s-.16,6.49-1.66,9.66l-.31,9.21s.45,8.45,1.36,10.11-2,15.69-2,15.69v2.42s-4.83,1.81-6.2-.3l1.35-18-.6-24.9Z"/><path class="cls-15" d="M296.6,147l.91,2.42.77,5.13a4.55,4.55,0,0,1-1.36,3.93,43,43,0,0,0-4.22,5.58l-2.87-8.6s2.87-.46,2.41-2.42a27.89,27.89,0,0,1-.29-5.58Z"/><path class="cls-16" d="M296.64,147l.9,2.41.78,5.14a4.55,4.55,0,0,1-1.36,3.92,42.32,42.32,0,0,0-4.23,5.59l-2.89-8.62s2.87-.45,2.42-2.41a28.28,28.28,0,0,1-.3-5.59Z"/><path class="cls-2" d="M283.19,216.29c1.94,3,4.95,1.32,5.48,1l-.22-.65-4.38-1.23A2.74,2.74,0,0,1,283.19,216.29Z"/><path class="cls-14" d="M277.13,173.73c.15,2.11,2.72,9.81,2.72,9.81l1.81,6.33a51,51,0,0,1,2,13.78,13.57,13.57,0,0,0,.57,4.34c1.21,3.32-1.2,7.84-1.2,7.84,2.11,3.78,5.73,1.21,5.73,1.21v-2.41s2.87-13.13,2.11-15.7-1.05-9.5-1.05-9.5V176.9a14.19,14.19,0,0,0,4.14-9c0-.5.07-1,.09-1.55.12-3.41-2.21-7.4-3.11-8.82-.21-.35-.35-.54-.35-.54l-13.33,5.28h0v1.67Z"/><path class="cls-2" d="M281.66,126.49a8.21,8.21,0,0,1,.92,2.18,5.94,5.94,0,0,0,4.59-.17,7.45,7.45,0,0,1,1.28-3.07Z"/><circle class="cls-12" cx="284.68" cy="122.87" r="5.88"/><path class="cls-2" d="M277.13,163.92h.07c6.33,1.3,14.27-5.3,14.27-5.3a8.31,8.31,0,0,1-.55-1.12c-.21-.34-.35-.54-.35-.54l-13.33,5.29,0,.53Z"/><path class="cls-15" d="M278.8,133.28s8.45-5.13,11.16-3l3.78,4.83s2.41.75,2,5.6l1.81,8.75-5.42,1.36a6,6,0,0,0-.61,7.4s-8,6.64-14.34,5.28l.45-7.09a9.2,9.2,0,0,0-1-7.55c-2.41-3.62-.15-7.09,2.11-8.45C278.64,140.37,279.7,134.64,278.8,133.28Z"/><path class="cls-12" d="M278.34,164.07a7.77,7.77,0,0,0-4.68,3,9.37,9.37,0,0,1-1.58,2,1.2,1.2,0,0,0-.08,1.69,1.44,1.44,0,0,0,.27.22c1.2.72,3.15,1.16,5.62-.87C282.13,166.63,278.34,164.07,278.34,164.07Z"/><path class="cls-2" d="M283,136.15s3-.31,3.77,7.54,2,9.66,2,9.66.75,4.08-1.06,6.49-5.28,7.55-5.28,7.55-3.78,1.05-4.53-2.71l4.68-8.76a6.29,6.29,0,0,0-1.06-5.13C279.7,148.68,278.34,134.64,283,136.15Z"/><path class="cls-15" d="M282.72,135.69s3-.3,3.77,7.55,2,9.66,2,9.66.78,4.07-1.05,6.49-5.27,7.55-5.27,7.55-3.77,1.05-4.52-2.72l4.67-8.75a6.27,6.27,0,0,0-1-5.13C279.41,148.22,278,134.19,282.72,135.69Z"/><path class="cls-2" d="M280.23,141.35s-.3,4.68,1,7.25,1.36,5.88,0,7.69"/><path class="cls-2" d="M279.47,135.62s1.21-1.21,4.68-1.36,5-1.21,5-1.21"/><path class="cls-2" d="M287.87,115.26a2.62,2.62,0,0,1,2.29,1.29c.09.32.16.66.22,1,.34,1.32,1.82,1.94,2.74,2.94a7,7,0,0,1,1.42,3.27,30.71,30.71,0,0,1,.53,10.25c-.29,2.5-.9,5-1.06,7.48a11.86,11.86,0,0,0,1.51,7.27,18,18,0,0,1,1.79,2.72,5.24,5.24,0,0,1-3.17.84c-1.3,0-2.59,0-3.9,0a4.14,4.14,0,0,1-2-.42,3.08,3.08,0,0,1-1-1.11,8,8,0,0,1-.9-4.24c0-1.46.27-2.91.3-4.38a3.89,3.89,0,0,0-.51-2.29,7,7,0,0,0-1.27-1.16,8,8,0,0,1-2.22-5.89c-.06-2.16.3-4.32.12-6.47-.07-.84-.39-1.86-1.21-2a4,4,0,0,1-.78-.1c-.66-.26-.6-1.19-.78-1.88s-.87-1.36-1.05-2.14c-.44-1.83,1.89-4,3.41-4.65S286.24,115.06,287.87,115.26Z"/><path class="cls-17" d="M288,115a2.59,2.59,0,0,1,2.29,1.29,8.33,8.33,0,0,1,.22,1c.34,1.32,1.82,1.94,2.74,2.94a7,7,0,0,1,1.42,3.27,30.51,30.51,0,0,1,.53,10.26c-.29,2.5-.89,5-1.06,7.48a11.85,11.85,0,0,0,1.51,7.27,18,18,0,0,1,1.79,2.72,5.24,5.24,0,0,1-3.17.84q-1.94.06-3.9,0a4.13,4.13,0,0,1-2-.41,3,3,0,0,1-1-1.12,7.82,7.82,0,0,1-.9-4.24c0-1.46.26-2.91.29-4.37a3.93,3.93,0,0,0-.51-2.3,7.78,7.78,0,0,0-1.27-1.16,8,8,0,0,1-2.22-5.89c0-2.16.3-4.32.12-6.47-.07-.84-.39-1.85-1.21-2a4.17,4.17,0,0,1-.78-.1c-.66-.25-.6-1.19-.77-1.87s-.88-1.37-1.06-2.15c-.44-1.82,1.89-4,3.41-4.65A12.32,12.32,0,0,1,288,115Z"/><path class="cls-8" d="M49.64,222.05s4.15-.13,5.4-1,6.39-2,6.7-.53,6.24,7.11,1.55,7.15-10.89-.73-12.14-1.49S49.64,222.05,49.64,222.05Z"/><path class="cls-9" d="M63.38,227.14c-4.69,0-10.9-.73-12.14-1.49-1-.58-1.33-2.66-1.46-3.62h-.14s.26,3.35,1.51,4.11,7.45,1.53,12.15,1.49c1.35,0,1.81-.49,1.79-1.2C64.9,226.87,64.38,227.14,63.38,227.14Z"/><path class="cls-8" d="M313.6,167.52s2.85-.09,3.71-.7,4.39-1.34,4.6-.36,4.29,4.88,1.07,4.91-7.48-.51-8.34-1S313.6,167.52,313.6,167.52Z"/><path class="cls-9" d="M323,171c-3.21,0-7.47-.51-8.33-1-.66-.38-.92-1.82-1-2.48h-.1s.18,2.3,1,2.82,5.12,1,8.34,1c.93,0,1.25-.33,1.23-.83C324.08,170.84,323.73,171,323,171Z"/><circle class="cls-1" cx="12.13" cy="8.39" r="8.39"/><circle class="cls-1" cx="372.67" cy="32.42" r="8.39"/><circle class="cls-1" cx="6.2" cy="41.16" r="6.2"/><circle class="cls-1" cx="69.01" cy="6.27" r="6.2"/><circle class="cls-1" cx="323.32" cy="7.05" r="6.2"/><path class="cls-18" d="M344.88,250.59s1.55,2-.71,5.1-4.14,5.65-3.39,7.56c0,0,3.42-5.69,6.2-5.77S348,254,344.88,250.59Z"/><path class="cls-2" d="M344.88,250.59a2.74,2.74,0,0,1,.32.64c2.71,3.2,4.17,6.18,1.55,6.25-2.44.07-5.36,4.42-6.06,5.53a2.34,2.34,0,0,0,.09.24s3.42-5.69,6.2-5.77S348,254,344.88,250.59Z"/><path class="cls-7" d="M347.77,253.18c0,.72-.08,1.3-.18,1.3s-.18-.58-.18-1.3.1-.39.2-.39S347.77,252.47,347.77,253.18Z"/><path class="cls-7" d="M348.76,254c-.63.34-1.16.54-1.23.46s.43-.44,1.06-.78.38-.09.43,0S349.39,253.69,348.76,254Z"/><path class="cls-18" d="M336.68,250.59s-1.55,2,.72,5.1,4.14,5.65,3.38,7.56c0,0-3.43-5.69-6.2-5.77S333.61,254,336.68,250.59Z"/><path class="cls-2" d="M336.68,250.59a2.74,2.74,0,0,0-.32.64c-2.71,3.2-4.17,6.18-1.55,6.25,2.44.07,5.36,4.42,6.06,5.53,0,.08-.05.16-.08.24s-3.43-5.69-6.21-5.77S333.61,254,336.68,250.59Z"/><path class="cls-7" d="M333.79,253.18c0,.72.08,1.3.18,1.3s.18-.58.18-1.3-.1-.39-.2-.39S333.79,252.47,333.79,253.18Z"/><path class="cls-7" d="M332.8,254c.63.34,1.17.54,1.22.46s-.42-.44-1-.78-.38-.09-.42,0S332.17,253.69,332.8,254Z"/><path class="cls-8" d="M334.29,263s4.34-.14,5.65-1.07,6.68-2,7-.55,6.52,7.44,1.62,7.47-11.39-.77-12.69-1.55S334.29,263,334.29,263Z"/><path class="cls-9" d="M348.65,268.32c-4.9,0-11.39-.77-12.7-1.55-1-.6-1.39-2.78-1.52-3.78h-.14s.27,3.49,1.58,4.3,7.79,1.59,12.69,1.55c1.42,0,1.91-.52,1.88-1.26C350.24,268,349.7,268.32,348.65,268.32Z"/><path class="cls-19" d="M122.68,48.84A8.14,8.14,0,1,0,130.82,57,8.13,8.13,0,0,0,122.68,48.84Zm0,1.57A6.59,6.59,0,1,1,116.09,57a6.59,6.59,0,0,1,6.59-6.59m4.61,4.29-.74-.75a.38.38,0,0,0-.55,0h0l-4.65,4.61-2-2a.38.38,0,0,0-.55,0h0l-.75.74a.39.39,0,0,0,0,.54h0l3,3a.38.38,0,0,0,.55,0h0l5.67-5.63a.38.38,0,0,0,0-.54h0Z"/><path class="cls-19" d="M32.55,90.05a8.14,8.14,0,1,0,9.78,6.11,8.14,8.14,0,0,0-9.78-6.11Zm.36,1.55A6.59,6.59,0,1,1,28,99.52v0a6.6,6.6,0,0,1,4.93-7.89m5.45,3.14-.89-.57a.37.37,0,0,0-.53.11h0l-3.49,5.54-2.36-1.49a.39.39,0,0,0-.54.11h0l-.57.89a.4.4,0,0,0,.12.54h0l3.58,2.26a.4.4,0,0,0,.54-.11v0l4.26-6.76a.38.38,0,0,0-.11-.53h0Z"/><path class="cls-19" d="M241.33,50a8.15,8.15,0,1,0,8.15,8.15h0A8.15,8.15,0,0,0,241.33,50Zm0,1.58a6.59,6.59,0,1,1-6.59,6.59,6.6,6.6,0,0,1,6.59-6.59m4.61,4.29-.74-.75a.37.37,0,0,0-.54,0h0L240,59.74l-2-2a.38.38,0,0,0-.55,0h0l-.74.74a.39.39,0,0,0,0,.55h0l3,3a.39.39,0,0,0,.55,0h0l5.67-5.63a.38.38,0,0,0,0-.55Z"/><path class="cls-19" d="M334.74,90.22A8.14,8.14,0,1,0,342.22,99a8.14,8.14,0,0,0-7.48-8.76Zm-.13,1.57a6.59,6.59,0,1,1-7.06,6.08v0a6.57,6.57,0,0,1,7.06-6h0m4.27,4.63-.68-.8a.39.39,0,0,0-.55-.06h0l-5,4.24-1.8-2.13a.39.39,0,0,0-.55-.06h0l-.81.68a.4.4,0,0,0-.05.55h0l2.74,3.23a.39.39,0,0,0,.55.05h0L338.83,97a.38.38,0,0,0,.06-.54Z"/></g></g></svg>