<svg xmlns="http://www.w3.org/2000/svg" xmlns:xlink="http://www.w3.org/1999/xlink" viewBox="0 0 735.14 520.73"><defs><style>.cls-1,.cls-6{fill:#363062;}.cls-1,.cls-21,.cls-4,.cls-9{opacity:0.1;}.cls-1,.cls-17,.cls-21,.cls-4{isolation:isolate;}.cls-2{fill:url(#linear-gradient);}.cls-21,.cls-3{fill:#fff;}.cls-5{fill:#cf6f80;}.cls-7{fill:#3f3d56;}.cls-8{fill:#512e4e;}.cls-10{fill:#535461;}.cls-11{fill:#9d9cb5;}.cls-12{fill:none;stroke:#535461;stroke-miterlimit:10;stroke-width:1.33px;}.cls-13{fill:url(#linear-gradient-2);}.cls-14{fill:#1d2366;}.cls-15{fill:#ffb0b1;}.cls-16{fill:#c7daf5;}.cls-17{opacity:0.03;}.cls-18{fill:#dce7ff;}.cls-19{fill:#591d4b;}.cls-20{fill:#be8b87;}.cls-22{fill:#efc8c4;}.cls-23{fill:#727a9c;}</style><linearGradient id="linear-gradient" x1="284.3" y1="-2617.91" x2="284.3" y2="-2208.56" gradientTransform="matrix(1, 0, 0, -1, -47.24, -2102.42)" gradientUnits="userSpaceOnUse"><stop offset="0" stop-color="gray" stop-opacity="0.25"/><stop offset="0.54" stop-color="gray" stop-opacity="0.12"/><stop offset="1" stop-color="gray" stop-opacity="0.1"/></linearGradient><linearGradient id="linear-gradient-2" x1="641.63" y1="-2612.75" x2="641.63" y2="-2238.85" xlink:href="#linear-gradient"/></defs><title>doctors</title><g id="Layer_2" data-name="Layer 2"><g id="layer1"><ellipse class="cls-1" cx="244.41" cy="510.03" rx="64.82" ry="10.41"/><ellipse class="cls-1" cx="596.78" cy="510.32" rx="80.89" ry="10.41"/><path class="cls-1" d="M9.21,225H76.73v92H14.15c-.16,1-.32,1.9-.5,2.85H76.73v74.22l-.32-.12q-2.67-1.05-5.32-2.24L70,391.21c-1.78-.84-3.55-1.72-5.33-2.66-.61-.32-1.23-.66-1.85-1a111.11,111.11,0,0,1-26.53-20.73l-.66-.66c-1.08-1.17-2.14-2.36-3.16-3.57l-1.13-1.33c-1.21-1.48-2.38-3-3.52-4.55l-.5-.67a98.53,98.53,0,0,1-11.44-20.69c-.1-.22-.18-.45-.26-.66q-1.38-3.53-2.43-7.12c-.31-1-.6-2-.85-3-.1-.31-.18-.6-.25-.9-3.78-14.75-4.22-30.07-4.22-45.29V273c0-6.15.07-12.35.18-18.54,0-1.6.06-3.2.1-4.81q.13-6.12.4-12.25c0-1.14.09-2.27.15-3.4a18.19,18.19,0,0,1,.1-1.95C8.92,229.69,9.05,227.34,9.21,225Z"/><path class="cls-1" d="M76.73,122.53h-37a280,280,0,0,1,19.7-27.11c5.5-6.76,11.31-13.35,17.34-19.7Z"/><path class="cls-1" d="M76.73,125.38v96.77H9.42c0-.28.05-.57.07-.85.06-.76.12-1.53.19-2.28.07-.9.15-1.79.24-2.66s.18-1.94.28-2.91.19-1.94.3-2.9.21-1.93.33-2.89.23-1.93.36-2.89c.1-.8.2-1.59.31-2.39.15-1.12.31-2.25.48-3.37a2.89,2.89,0,0,1,.08-.5,230.73,230.73,0,0,1,5-24.29,180.59,180.59,0,0,1,8.35-24.62,186.67,186.67,0,0,1,12.56-24.19Z"/><path class="cls-1" d="M92.85,225v92H237.06V225Zm0,94.87v79c.82.17,1.64.34,2.45.48,1.11.21,2.2.4,3.33.57l.66.08c.44.08.9.14,1.33.2,1.12.15,2.22.28,3.33.38l1.59.14,1.29.1h0c.69,0,1.39.09,2.07.11.43,0,.85,0,1.29.05h4.74c.58,0,1.15,0,1.71-.05h0a9.63,9.63,0,0,0,1.2,0h.33a6.37,6.37,0,0,0,1-.05h.24l2.22-.17,2.22-.24,1.52-.18a132.37,132.37,0,0,0,18.26-3.88c13.45-3.75,26.61-9,40-12.85,17.39-5,36.59-7.39,53.39-1.33V319.86ZM237.06,122.53V0a185.45,185.45,0,0,0-46.86,5.5C153.69,14.68,120.92,34.58,92.85,60v62.54h7.24v2.84H92.85v96.78H237.06V125.37H129.8v-2.84ZM422.29,81.15a59.68,59.68,0,0,1-26.14-7.6C380.61,65.1,368.21,52.05,354.34,41,325.54,18.11,289.81,4.28,253.16.84V122.53H459l.51-.54ZM441,77.82l19.89,21.82V72.1c-6.66.82-12.5,2.79-19.86,5.69Zm19.89,340.7V319.86H418.55c-.11-.42-.22-.84-.35-1.27.12.43.23.85.35,1.27H253.19v71.35c1.57,1.17,3.12,2.39,4.66,3.64h0c1.65,1.33,3.29,2.73,4.93,4.11l1.66,1.37c.79.66,1.59,1.33,2.39,1.95q2.4,2,4.84,3.84c.81.66,1.63,1.26,2.45,1.88a332,332,0,0,0,41,26.82q4.81,2.67,9.71,5.2c2.17,1.11,4.36,2.21,6.56,3.28q4.94,2.42,10,4.66h0a366.19,366.19,0,0,0,97.13,28.29q11.17,1.65,22.43,2.6V418.52h0ZM253.19,125.37v96.78H461V125.37Zm0,99.62v92H461V225ZM477.08,72V102.7l25.38-27.85q-12.61-2-25.38-2.9Zm0,153v92H679.15V225ZM678.41,425.83l.72-106h-202V479.91a363.38,363.38,0,0,0,39.05-.47h.23q9.3-.58,18.54-1.7H535a341.44,341.44,0,0,0,95.26-25.42m87.82-212.18c-.76-1.78-1.55-3.56-2.36-5.32-1.5-3.32-3.09-6.56-4.73-9.79H695.27v92h39.86c0-26-6.61-52.66-17-76.91ZM695.27,319.9V411a130.74,130.74,0,0,0,27.54-37.16c8.22-16.95,12-35.3,12.28-54Zm0-121.69v23.95h14.29a262.19,262.19,0,0,0-14.27-24ZM558.22,90l-3.16-1.19a288.61,288.61,0,0,0-34.13-10.26L482.09,121.2h0l-.75.79.5.55H620.07A296.08,296.08,0,0,0,558.24,90Zm65.9,35.38H479.91L477.08,128v94.15h202.1v-45.6a288,288,0,0,0-55-51.18Z"/><path class="cls-1" d="M76.73,174.19v48H9.42c0-.28.05-.57.07-.85.06-.76.12-1.53.19-2.28.07-.9.15-1.79.24-2.66s.18-1.94.28-2.91.19-1.94.3-2.9.21-1.93.33-2.89.23-1.93.36-2.89c.1-.8.2-1.59.31-2.39.15-1.12.31-2.25.48-3.37a2.89,2.89,0,0,1,.08-.5,230.73,230.73,0,0,1,5-24.29Z"/><path class="cls-1" d="M9.21,225H76.73v92H14.15c-.16,1-.32,1.9-.5,2.85H76.73v74.22l-.32-.12q-2.67-1.05-5.32-2.24L70,391.21c-1.78-.84-3.55-1.72-5.33-2.66-.61-.32-1.23-.66-1.85-1a111.11,111.11,0,0,1-26.53-20.73l-.66-.66c-1.08-1.17-2.14-2.36-3.16-3.57l-1.13-1.33c-1.21-1.48-2.38-3-3.52-4.55l-.5-.67a98.53,98.53,0,0,1-11.44-20.69c-.1-.22-.18-.45-.26-.66q-1.38-3.53-2.43-7.12c-.31-1-.6-2-.85-3-.1-.31-.18-.6-.25-.9-3.78-14.75-4.22-30.07-4.22-45.29V273c0-6.15.07-12.35.18-18.54,0-1.6.06-3.2.1-4.81q.13-6.12.4-12.25c0-1.14.09-2.27.15-3.4a18.19,18.19,0,0,1,.1-1.95C8.92,229.69,9.05,227.34,9.21,225Z"/><polygon class="cls-1" points="143.61 139.23 143.61 222.15 92.85 222.15 92.85 139.23 100.09 139.23 100.09 111.16 129.8 111.16 129.8 139.23 143.61 139.23"/><rect class="cls-1" x="92.85" y="224.99" width="50.76" height="92.03"/><path class="cls-1" d="M92.85,319.87h50.76v76.51a132,132,0,0,1-18.26,3.87l-1.51.19c-.75.09-1.49.16-2.22.23s-1.49.13-2.23.18h-.23c-.32,0-.67,0-1,0h-.34c-.4,0-.8,0-1.2.06h0c-.56,0-1.13,0-1.71,0h-4.71l-1.28,0c-.66,0-1.38-.08-2.08-.12h0l-1.27-.1-1.59-.14c-1.12-.1-2.23-.23-3.33-.38L99.34,400l-.66-.09c-1.12-.17-2.21-.36-3.33-.57-.82-.14-1.63-.32-2.46-.48Z"/><rect class="cls-1" x="419.09" y="129.44" width="41.86" height="92.7"/><polygon class="cls-1" points="460.96 224.99 460.96 317.02 253.19 317.02 253.19 277.33 363.86 277.33 363.86 300.74 419.09 300.74 419.09 224.99 460.96 224.99"/><path class="cls-1" d="M461.62,418.54H461v60.38q-11.24-1-22.42-2.59A366.61,366.61,0,0,1,341.36,448q-13.38-6-26.23-13.16a333.22,333.22,0,0,1-41-26.81q-4.9-3.75-9.67-7.68c-2.2-1.82-4.39-3.68-6.6-5.49-1.54-1.24-3.09-2.47-4.66-3.64V319.87H418.54c-.11-.43-.22-.85-.34-1.27.12.42.24.84.35,1.27H461V418.5Z"/><path class="cls-1" d="M570.12,122.53H542.85v-8.47h12.22V88.81c1.06.39,2.12.78,3.17,1.19v24.06h11.88Z"/><path class="cls-1" d="M635.84,222.15H501.93l.05,0-.06,0H477.08V129.44h7V198h32.16V157.39h26.57v-32h27.28v32H596.7V198h39.14Z"/><path class="cls-1" d="M477.08,225v92H635.84V225ZM678.93,425.35l.22-72.84H635.84v-32.6H477.08v160a363.38,363.38,0,0,0,39.05-.47h.23q9.3-.58,18.54-1.7H535a341.44,341.44,0,0,0,95.26-25.42"/><path class="cls-1" d="M698.09,319.87h37c-.32,18.69-4.08,37-12.29,54A130.46,130.46,0,0,1,695.29,411V352.47h2.8Z"/><path class="cls-1" d="M735.14,317h-37V240.11h20C728.52,264.36,735.11,291,735.14,317Z"/><rect class="cls-1" x="438.53" y="155.21" width="22.43" height="29.07"/><rect class="cls-1" x="438.53" y="215.46" width="22.43" height="6.69"/><rect class="cls-1" x="438.53" y="224.99" width="22.43" height="19.53"/><rect class="cls-1" x="438.53" y="275.7" width="22.43" height="29.07"/><rect class="cls-1" x="438.53" y="335.95" width="22.43" height="29.07"/><path class="cls-1" d="M461,418.5a3.71,3.71,0,0,1,.67,0H461v6.75H438.53V396.2H461Z"/><path class="cls-1" d="M461,456.43v22.45q-11.24-.94-22.42-2.59V456.43Z"/><rect class="cls-1" x="253.19" y="314.89" width="96.11" height="2.14"/><rect class="cls-1" x="253.19" y="319.86" width="96.11" height="8.18"/><rect class="cls-1" x="253.19" y="354.87" width="96.11" height="13.16"/><path class="cls-1" d="M349.29,394.85V408H274.12q-4.89-3.74-9.67-7.68c-2.21-1.81-4.39-3.67-6.61-5.48Z"/><path class="cls-1" d="M349.29,434.83V448h-7.93q-13.38-6-26.23-13.16Z"/><rect class="cls-1" x="516.14" y="233.91" width="18.92" height="18.92"/><rect class="cls-1" x="106.48" y="145.76" width="18.92" height="18.92"/><rect class="cls-1" x="106.48" y="189.7" width="18.92" height="18.92"/><rect class="cls-1" x="106.48" y="233.65" width="18.92" height="18.92"/><rect class="cls-1" x="106.48" y="277.59" width="18.92" height="18.92"/><rect class="cls-1" x="106.48" y="321.54" width="18.92" height="18.92"/><rect class="cls-1" x="106.48" y="365.49" width="18.92" height="18.92"/><rect class="cls-1" x="588.36" y="233.91" width="18.92" height="18.92"/><rect class="cls-1" x="516.14" y="280.58" width="18.92" height="18.92"/><rect class="cls-1" x="588.36" y="280.58" width="18.92" height="18.92"/><rect class="cls-1" x="516.14" y="327.24" width="18.92" height="18.92"/><rect class="cls-1" x="588.36" y="327.24" width="18.92" height="18.92"/><rect class="cls-1" x="516.14" y="373.91" width="18.92" height="18.92"/><rect class="cls-1" x="588.36" y="373.91" width="18.92" height="18.92"/><rect class="cls-1" x="516.14" y="420.58" width="18.92" height="18.92"/><rect class="cls-1" x="588.36" y="420.58" width="18.92" height="18.92"/><polygon class="cls-1" points="516.14 479.44 516.14 467.24 535.05 467.24 535.05 477.7 516.14 479.44"/><path class="cls-1" d="M12,198.5v10.82H76.73V198.5Zm6.45,10.14H13.15v-9.48h5.32Zm6.45,0H19.56v-9.48h5.32Zm6.43,0H26v-9.48h5.32Zm6.45,0H32.44v-9.48h5.32Zm6.44,0H38.87v-9.48H44.2Zm6.44,0H45.32v-9.48h5.32Zm6.45,0H51.77v-9.48h5.32Zm6.44,0H58.21v-9.48h5.32Zm6.44,0H64.65v-9.48H70Zm6.44,0H71.09v-9.48h5.32Z"/><path class="cls-1" d="M12,230v10.83H76.73V230Zm6.45,10.14H13.15v-9.45h5.32Zm6.45,0H19.56v-9.45h5.32Zm6.43,0H26v-9.45h5.32Zm6.45,0H32.44v-9.45h5.32Zm6.44,0H38.87v-9.45H44.2Zm6.44,0H45.32v-9.45h5.32Zm6.45,0H51.77v-9.45h5.32Zm6.44,0H58.21v-9.45h5.32Zm6.44,0H64.65v-9.45H70Zm6.44,0H71.09v-9.45h5.32Z"/><path class="cls-1" d="M12,261.5v10.84H76.73V261.5Zm6.45,10.14H13.15v-9.46h5.32Zm6.45,0H19.56v-9.46h5.32Zm6.43,0H26v-9.46h5.32Zm6.45,0H32.44v-9.46h5.32Zm6.44,0H38.87v-9.46H44.2Zm6.44,0H45.32v-9.46h5.32Zm6.45,0H51.77v-9.46h5.32Zm6.44,0H58.21v-9.46h5.32Zm6.44,0H64.65v-9.46H70Zm6.44,0H71.09v-9.46h5.32Z"/><path class="cls-1" d="M12,293v10.81H76.73V293Zm6.45,10.14H13.15v-9.47h5.32Zm6.45,0H19.56v-9.47h5.32Zm6.43,0H26v-9.47h5.32Zm6.45,0H32.44v-9.47h5.32Zm6.44,0H38.87v-9.47H44.2Zm6.44,0H45.32v-9.47h5.32Zm6.45,0H51.77v-9.47h5.32Zm6.44,0H58.21v-9.47h5.32Zm6.44,0H64.65v-9.47H70Zm6.44,0H71.09v-9.47h5.32Z"/><path class="cls-1" d="M12.26,324.51c.26,1,.55,2,.86,3v-2.36h5.32v9.46H15.59c.09.22.17.45.26.66H76.73v-10.8ZM24.9,334.65H19.58v-9.46H24.9Zm6.43,0H26v-9.46h5.32Zm6.45,0H32.44v-9.46h5.32Zm6.44,0H38.89v-9.46h5.33Zm6.44,0H45.34v-9.46h5.32Zm6.45,0H51.79v-9.46h5.32Zm6.44,0H58.23v-9.46h5.32Zm6.44,0H64.67v-9.46H70Zm6.44,0H71.11v-9.46h5.32Z"/><path class="cls-1" d="M27.29,356c.17.22.33.46.5.67h3.52v4.54c.38.46.75.91,1.14,1.33v-5.9h5.32v9.5H35.62a8.22,8.22,0,0,0,.66.66H76.75V356ZM44.2,366.15H38.87v-9.46H44.2Zm6.44,0H45.32v-9.46h5.32Zm6.45,0H51.77v-9.46h5.32Zm6.44,0H58.21v-9.46h5.32Zm6.44,0H64.65v-9.46H70Zm6.44,0H71.09v-9.46h5.32Z"/><path class="cls-1" d="M62.81,387.51c.61.35,1.23.67,1.85,1v-.34H70v3l1.13.52v-3.52h5.33V394a1.52,1.52,0,0,0,.32.12v-6.56Z"/><path class="cls-1" d="M501.93,222.15ZM461,418.5ZM418.2,318.59c.12.43.23.85.35,1.27h0C418.44,319.44,418.33,319,418.2,318.59Zm83.73-96.46ZM100.11,122.51v2.84h29.72v-2.84ZM461,418.5ZM418.2,318.59c.12.43.23.85.35,1.27h0C418.44,319.44,418.33,319,418.2,318.59Zm83.73-96.46ZM461,418.48ZM418.2,318.59c.12.43.23.85.35,1.27h0C418.44,319.44,418.33,319,418.2,318.59Z"/><path class="cls-2" d="M307.09,252.59s-2.62-.37-2.62-4.19-1.88-11-1.88-11h0S301,225,298.73,223.06s-5.13-13.53-5.13-13.53-.49-6.27-1.49-7.62-2.36-4.66-4.37-9.38-10.35-8-10.35-8S262.3,175.79,258,172.94h0a6.15,6.15,0,0,1-1.08-.82c-.75-1-4-1-4-1a66,66,0,0,1-.77-6.83,5.78,5.78,0,0,0,0-.72,23,23,0,0,0,10.12-12.52c.08-.25.14-.52.22-.77a2.13,2.13,0,0,0,1.29-1.17,25.11,25.11,0,0,1,.88-2.66,9.68,9.68,0,0,1,2.46-2.16c2.11-1.8,2.66-4.83,2.56-7.58-.07-2.23-.43-4.48-.29-6.69l0-.56c0-.33.09-.67.15-1,.32-1.65,1-3.2,1.44-4.84a6.28,6.28,0,0,0-.5-4.89c-1.36-2.07-4.2-2.48-6.7-2.69-2.82-.24-5.35.07-7.16-2.28a25.39,25.39,0,0,0-2.85-3.44c-.37-.34-4-2.55-4-2.7a16.15,16.15,0,0,0-11.28-.86c-1.87.54-3.64,1.43-5.54,1.88-4.11,1-8.83-.08-12.32,2.27-1.94,1.33-3.1,3.44-4.2,5.51-.88,1.69-1.78,3.39-2.7,5.08a33.14,33.14,0,0,0-3.58,8.71,14,14,0,0,0-.24,2h0v1.08a3.6,3.6,0,0,0,0,.67c0,.2,0,.27,0,.41s.05.45.09.67.12.58.2.87l.12.37c.07.23.15.45.24.67s.09.23.14.34a7,7,0,0,0,.34.67c.06.09.1.18.15.26a7.78,7.78,0,0,0,.61.89c1.42,1.78,3.52,2.91,5.07,4.57v.75a22.78,22.78,0,0,0,10.36,18.59c0,.26,0,.52,0,.77a37.88,37.88,0,0,1-.07,5.93,2.8,2.8,0,0,0-2.21-1,3,3,0,0,0-.85.08l-.06-.05h0v.06c-1.47.36-3.27,1.88-5,6.21,0,0-5.24,5.91-9.24,5.66s-14.09,6.15-14.09,6.15-9.86,6.4-12,12.92a91.37,91.37,0,0,1-4.24,10.83l-12.19,25.11h0l-2.25,19.93s1.25,8.86,1,10.21,5.12,13.53,5.12,13.53,17.71,31.13,24.95,32.73l.52-.37a4.3,4.3,0,0,0,1,.37l1.49-1a15.87,15.87,0,0,1-.12,3.51c-1,3.07.38,23.13,2.12,27.06s1.12,55.48,1.12,55.48l-.24,4.55a1.9,1.9,0,0,0,.06.4l-.06,1.08.18.09a13.18,13.18,0,0,1-.18,4.34c-.63,2-.88,7.63-.88,7.63s-5,31.86-2.62,38.26,4.37,13.41,4.37,13.41,2.49,8,.12,9.34-9.13,3.66-7.74,7c1.27,3.08,6.06,11.31,6.77,12.52l-.06.63-1,10.6a12.93,12.93,0,0,0,1.12,4,7,7,0,0,0,7.11,4.44c.67,0,1.44-.12,2.18-.22A93.88,93.88,0,0,0,227.75,511a6.29,6.29,0,0,1-1.26-1h0a3.62,3.62,0,0,1-1.11-2.66c.1-1.93-3.51-11.12-4.41-13.39-.14-.32-.21-.51-.21-.51s8.23-8.61,6.86-16.24c0,0-9.11-5.32-6.11-8.24s8.36-11.31,8.36-11.31.25-31.37,0-36.05a39.15,39.15,0,0,1,.46-9.73c.1-.49.22-1,.35-1.43a86.22,86.22,0,0,0,12.53.95c1.53,0,3.09,0,4.66-.09q0,.66.06,1.44c.34,7.77,1,21.39,1.51,26.46.75,7.25,4.87,26.81,4.87,26.81s-7.86,5.05,1.37,17.47c0,0,0,4.51-.61,5.16h0a55.79,55.79,0,0,0-1.58,6.49c-.39,2.34-.55,4.71.08,5.94,1.5,2.94,10.48,2.7,10.48,2.7h0l.22,0a12.87,12.87,0,0,1,9.5,2.87c3.42,2.74,16.37,1.54,23.38.67,2.75-.35,4.58-.67,4.58-.67a2.83,2.83,0,0,0,.1-1h0c-.08-1.72-1.43-5.5-10.58-8.87,0,0-8.61-5.79-8.49-10.83h-1.18a9.31,9.31,0,0,1,1.19,0s-3.37-12.31-2-13.31S278,458,278,458s-2.36-22.89-2.49-24.49a14.27,14.27,0,0,1,.62-4.06l-.62-12.55s-.12-4.17,0-5.53a27.82,27.82,0,0,0-.28-3.52c-.06-.46-.12-.95-.19-1.43,3.23-.81,5.32-1.57,5.32-1.57L280,361.16c2.74-5.32,3.25-17,3.23-25.28,0-5.32-.24-9.26-.24-9.26l3.75-6.11s.86-7.32-.51-8.92a1.55,1.55,0,0,1,.17-2.1,7.89,7.89,0,0,1,.82-.56l-.09-.14a7,7,0,0,1,.83-.6s-1.33-2.06-.14-2.93c1.12.76,2.12,1.33,2.88,1.8-.06.48-.11.76-.11.76l.32-.66,1.18.66s5.87-11.69,5.74-13.41,4-9,4-9,.5-3.81,2.75-5.41,1.74-13.16,1.74-13.16.63-6,2.12-8.49S307.09,252.59,307.09,252.59Zm-112.27-5.13.11,2.78-1.14-1.84Z"/><path class="cls-3" d="M292.43,302.77,291,308.89s-11.51-5.87-13.58-13.34,3.47-10.29,3.47-10.29l10.72,4.54Z"/><path class="cls-4" d="M292.43,302.77,291,308.89s-11.51-5.87-13.58-13.34,3.47-10.29,3.47-10.29l10.72,4.54Z"/><path class="cls-3" d="M227.84,511.07s-10.65,3.92-18,4.41c-3.88.26-5.92-2.12-7-4.42a13.13,13.13,0,0,1-1.1-4l.95-10.55.51-5.61,15.54-4,2.2,6.73.21.51c.89,2.25,4.43,11.4,4.32,13.31a3.66,3.66,0,0,0,1.1,2.63A6.09,6.09,0,0,0,227.84,511.07Z"/><path class="cls-3" d="M300.54,505.71a2.54,2.54,0,0,1-.09,1s-22.76,3.8-27.42,0a12.34,12.34,0,0,0-9.58-2.8s-8.81.24-10.28-2.67c-.61-1.21-.45-3.57-.07-5.9a55.15,55.15,0,0,1,1.54-6.46l.35-.28,2.1-1.69,24.53-.72h.19c-.12,5,8.33,10.77,8.33,10.77C299.11,500.24,300.44,504,300.54,505.71Z"/><path class="cls-4" d="M300.54,505.71a2.55,2.55,0,0,1-.1,1s-22.75,3.8-27.41,0a12.32,12.32,0,0,0-9.57-2.8s-8.82.24-10.28-2.67c-.62-1.22-.46-3.57-.08-5.9,3.39.34,8.75,1.18,10.85,3.2,3.18,3.06,8.57,6.12,11.87,6.36C278.41,505,293.89,505.51,300.54,505.71Z"/><path class="cls-4" d="M227.84,511.07s-10.65,3.92-18,4.41c-3.88.26-5.92-2.12-7-4.43,2.71.92,6.47,1.87,8.44,1,2.35-1,10.65-1.71,15.31-2A6.11,6.11,0,0,0,227.84,511.07Z"/><path class="cls-5" d="M243.63,195.84c-8.78-3.41-20.08-14.69-17.26-20a11.72,11.72,0,0,0,1.1-4.23,38.63,38.63,0,0,0,.08-6,81.68,81.68,0,0,0-1.18-9.74s27.42.62,25.82,4.66a15.14,15.14,0,0,0-.41,5.54c.13,2.3.46,4.9.8,7.11.48,3,1,5.32,1,5.32s-1.67,2.35-2.66,2.47S256.23,200.7,243.63,195.84Z"/><path class="cls-4" d="M221.19,494.08l-.21.23c-8.19-9.91-18.1,2.44-18.1,2.44l-.15-.26.51-5.61,15.54-4,2.2,6.73Z"/><path class="cls-4" d="M281.82,486.84s-6-.13-9.18,2.69-18.63.61-18,0a2.15,2.15,0,0,0,.35-1l2.1-1.68,24.53-.73C281.74,486.56,281.82,486.84,281.82,486.84Z"/><path class="cls-6" d="M231.39,409a17.58,17.58,0,0,0-1,3.41,38.78,38.78,0,0,0-.46,9.68c.25,4.66,0,35.87,0,35.87s-5.26,8.32-8.2,11.26,6,8.2,6,8.2C229,485,221,493.57,221,493.57c-8.2-9.91-18.11,2.45-18.11,2.45s-5.39-9.31-6.73-12.64,5.26-5.63,7.58-7-.11-9.31-.11-9.31-2-7-4.29-13.35,2.56-38.06,2.56-38.06a49.84,49.84,0,0,1,.86-7.59,12.49,12.49,0,0,0,.18-4.31c0-.49-.08-.89-.12-1.16a3.35,3.35,0,0,0-.06-.4l.1-.16,3.32-6.2S233,405.09,231.39,409Z"/><path class="cls-6" d="M281.82,486.11s-6-.13-9.18,2.66-18.63.61-18,0,.62-5.14.62-5.14c-9.06-12.37-1.33-17.38-1.33-17.38s-4.05-19.46-4.78-26.68c-.51-5-1.15-18.59-1.49-26.33-.14-3.33-.23-5.61-.23-5.61l7.4-1.49.95-.2,17.84-3.58s.5,3.33.83,6.05a29.31,29.31,0,0,1,.28,3.51c-.12,1.33,0,5.49,0,5.49l.6,12.49a14.17,14.17,0,0,0-.6,4c.12,1.59,2.44,24.35,2.44,24.35s4,13.59,2.66,14.56S281.82,486.11,281.82,486.11Z"/><path class="cls-4" d="M252.19,160.58a15.14,15.14,0,0,0-.41,5.54,22.79,22.79,0,0,1-24.23-.45,81.85,81.85,0,0,0-1.18-9.75S253.79,156.53,252.19,160.58Z"/><path class="cls-5" d="M262.79,145.88a22.33,22.33,0,0,1-1.12,7.06,22.77,22.77,0,0,1-44.4-6.52v-.54a22.77,22.77,0,0,1,45.53-.78v.78Z"/><path class="cls-4" d="M243.63,195.84c-8.78-3.41-20.08-14.69-17.26-20a11.72,11.72,0,0,0,1.1-4.23l12,9.88,7.44,6.1,5.65-14.4c.48,3,1,5.32,1,5.32s-1.67,2.35-2.66,2.48S256.23,200.7,243.63,195.84Z"/><polygon class="cls-6" points="274.72 239.5 264.68 408.14 251.59 409 217.69 311.21 223.25 195.12 224.42 170.59 239.49 182.97 246.94 189.07 252.76 174.26 263.58 183.69 274.72 239.5"/><path class="cls-4" d="M231.39,409a17.58,17.58,0,0,0-1,3.41,96.23,96.23,0,0,1-27.45-8.58l-.18-.09.06-1.07,0-.56,3.33-6.2S233,405.09,231.39,409Z"/><path class="cls-4" d="M255,412.44a67.09,67.09,0,0,1-7.36.83c-.14-3.32-.23-5.61-.23-5.61l7.4-1.49Z"/><path class="cls-4" d="M274.44,408.44c-4.73,1.23-12,2.62-18.58,1.75l-.09-4.21,17.84-3.58S274.11,405.69,274.44,408.44Z"/><path class="cls-4" d="M255.74,411c-27.27,4.66-52.25-8.69-52.25-8.69l.24-4.52s.62-51.29-1.1-55.22-3-23.87-2.08-26.93-3.55-49-3.55-49L196.27,248l-26.78-10.85,12-25a90.25,90.25,0,0,0,4.17-10.78c2.08-6.48,11.74-12.84,11.74-12.84s9.92-6.36,13.84-6.12,9-5.63,9-5.63c3.79-9.67,7.22-5.29,7.22-5.29a8.91,8.91,0,0,1-.18,1.43c-1.33,10.61,21.51,44.14,21.84,44.73h0l2.17,53,2.21,67.06Z"/><path class="cls-3" d="M255,411c-27.27,4.66-52.26-8.69-52.26-8.69l.25-4.52s.61-51.29-1.11-55.22-3-23.87-2.07-26.93-3.55-49-3.55-49L195.53,248l-26.8-10.89,12-25a91.92,91.92,0,0,0,4.16-10.78c2.08-6.48,11.75-12.84,11.75-12.84s9.91-6.36,13.83-6.12,9.05-5.63,9.05-5.63c3.8-9.67,8-5.29,8-5.29,0,.46-.39.66-.18,1.43,2.93,10.29,20.78,44.14,21.11,44.73h0l2.2,53,2.2,67.06Z"/><path class="cls-4" d="M247.66,219.18c-2.93-1.22-18.47-19-18.47-19v-4c-.57-1.33-3.93-.52-6.66.41l1.18-24.53,1.33,1.11C228,183.45,247.32,218.59,247.66,219.18Z"/><path class="cls-3" d="M248.4,217.71c-2.94-1.22-18.48-19-18.48-19v-4c-.57-1.33-3.93-.52-6.65.41l1.17-24.53,1.33,1.11C228.69,182,248.07,217.13,248.4,217.71Z"/><path class="cls-4" d="M203.49,306.2c.36,0,19-2,19-2s11.27,22.15,10.53,27.54-2.08,10.16-6.61,9.31-24.38.67-24.38.67Z"/><path class="cls-3" d="M202.75,304.73c.37,0,19-2,19-2s11.25,22.16,10.52,27.54-2.08,10.16-6.61,9.31-24.38.67-24.38.67Z"/><path class="cls-5" d="M216.77,294.33s17.07,9.17,17.43,12-8.69-1.23-10.64-1.71a24.79,24.79,0,0,0-3.92-.62l-13,.36Z"/><circle class="cls-4" cx="242.9" cy="218.53" r="1.8"/><circle class="cls-7" cx="242.9" cy="217.8" r="1.8"/><circle class="cls-4" cx="246.2" cy="296.29" r="1.8"/><circle class="cls-7" cx="246.2" cy="295.55" r="1.8"/><circle class="cls-4" cx="244.69" cy="257.41" r="1.8"/><circle class="cls-7" cx="244.69" cy="256.68" r="1.8"/><path class="cls-3" d="M286.09,303.61s1.23,1.84,0,2.7.12,2.93.12,2.93-3,1.79-1.71,3.4.5,8.88.5,8.88l-3.68,6.08s.22,3.92.24,9.21c0,8.27-.49,19.88-3.18,25.18l.38,43.45s-12.86,4.69-23.63,3.26L253.54,339s2.32-39.53,3.18-47.12a78.43,78.43,0,0,0,.61-11.87s-.36-11.87-1.59-17.38c0,0-1.33-23.86-1.47-30.47-.06-3.16.11-12.38.3-21.15.2-9.58.44-18.62.44-18.62l-2.43-19.22s2.43-.24,3.16.73a7,7,0,0,0,1.06.82h0c4.19,2.84,19,11.55,19,11.55s8.2,3.26,10.16,7.93,3.33,8,4.28,9.32,1.47,7.58,1.47,7.58,2.82,11.51,5,13.46,3.81,14.35,3.81,14.35l-19.46,15.3s-1.71,25.45-2.07,26.44S286.09,303.61,286.09,303.61Z"/><path class="cls-3" d="M286.83,303.61s1.22,1.84,0,2.7.12,2.93.12,2.93-3,1.81-1.71,3.42.49,8.88.49,8.88l-3.67,6.08s.22,3.92.24,9.21c0,8.27-.48,19.88-3.17,25.18l.36,43.45s-12.87,4.69-23.63,3.26L254.27,339s2.33-39.53,3.19-47.12a78.43,78.43,0,0,0,.61-11.87s-.37-11.87-1.59-17.38c0,0-1.33-23.86-1.47-30.47-.06-3.16.11-12.38.29-21.15.21-9.58.44-18.62.44-18.62l-3.21-19.48s3.21,0,4,1a6,6,0,0,0,1.06.82h0c4.19,2.84,19,11.55,19,11.55s8.19,3.26,10.15,7.93,3.33,8,4.28,9.32,1.47,7.58,1.47,7.58,2.82,11.51,5,13.46,3.79,14.32,3.79,14.32l-19.46,15.3s-1.71,25.46-2.08,26.44S286.83,303.61,286.83,303.61Z"/><path class="cls-4" d="M263.53,198l1.75,5.13L256,212.47c.2-9.58.44-18.63.44-18.63l-3.21-19.47s3.21,0,3.94,1a6.41,6.41,0,0,0,1.07.81h0l7.86,22.69Z"/><path class="cls-3" d="M262.79,196.56l1.76,5.13L255.31,211c.2-9.59.43-18.63.43-18.63l-3.21-19.47s3.21,0,4,1a6.52,6.52,0,0,0,1.06.82h0l7.87,22.68Z"/><path class="cls-4" d="M262.79,145.88a22.33,22.33,0,0,1-1.12,7.06,1,1,0,0,1-.72-.18c-.17-6-3.12-11.61-6.74-16.4a17.31,17.31,0,0,0-3.66-3.79,7.11,7.11,0,0,0-5-1.4c-2,.27-3.76,1.63-5.78,1.8-2.66.22-5-1.62-7.68-1.72a7.55,7.55,0,0,0-5.65,2.63,15.46,15.46,0,0,0-3,5.61,33.26,33.26,0,0,0-1.69,9.69c0,1.86-.21,4.19-1.94,4.87a10,10,0,0,0-2.51-7.59l0,0v-.54a22.77,22.77,0,0,1,45.53-.78v.78Z"/><path class="cls-8" d="M249.46,109.73a15.71,15.71,0,0,0-11.06-.86c-1.84.54-3.58,1.43-5.45,1.87-4,1-8.65-.08-12.07,2.26-1.9,1.33-3,3.43-4.11,5.47l-2.66,5.07a32.86,32.86,0,0,0-3.52,8.65,11,11,0,0,0,1.69,8.93c1.41,1.79,3.5,2.91,5,4.6a10,10,0,0,1,2.5,7.58c1.73-.66,1.9-3,1.94-4.87a32.55,32.55,0,0,1,1.69-9.68,15.42,15.42,0,0,1,3-5.62,7.56,7.56,0,0,1,5.64-2.62c2.67.09,5,1.93,7.69,1.71,2-.17,3.76-1.53,5.77-1.8a7.21,7.21,0,0,1,5,1.41,17.06,17.06,0,0,1,3.65,3.79c3.63,4.78,6.58,10.39,6.75,16.39.75.55,1.84-.17,2.21-1a22.29,22.29,0,0,1,.86-2.66,9.54,9.54,0,0,1,2.41-2.14c2.07-1.79,2.59-4.8,2.51-7.54s-.61-5.51-.09-8.19c.31-1.65,1-3.2,1.4-4.83a6.29,6.29,0,0,0-.48-4.86c-1.33-2.06-4.13-2.47-6.57-2.66-2.78-.24-5.26.07-7-2.27a25.4,25.4,0,0,0-2.79-3.42C253,112.07,249.46,109.88,249.46,109.73Z"/><path class="cls-4" d="M177.15,250l-7-12.85L168,257s1.22,8.81,1,10.16,5,13.46,5,13.46,17.38,31,24.48,32.56l24-17.14L216.09,288s-2.2-.85-2.75,0c0,0-11.81-20.31-13-21.78s-1-4.41-1-4.41-1.83-1.95-1.22-3.79-3.55-8.2-3.55-8.2l3.8-3.55Z"/><path class="cls-3" d="M170.56,235.71l-1.83,1.46L166.53,257s1.22,8.81,1,10.16,5,13.46,5,13.46,17.37,31,24.47,32.56L221,296,214.62,288s-2.2-.85-2.75,0c0,0-11.81-20.31-13-21.78s-1-4.41-1-4.41-1.84-1.95-1.22-3.79-3.56-8.2-3.56-8.2l3.8-3.55Z"/><path class="cls-4" d="M284.5,313.4c1.33,1.61.5,8.87.5,8.87l-3.68,6.08s.22,3.93.24,9.22l-6.18,1.93a3.67,3.67,0,0,1-4.59-2.41,3.54,3.54,0,0,1-.16-1.21l1.06-34.33,14.4,5.51c-1.22.85.12,2.94.12,2.94S283.16,311.78,284.5,313.4Z"/><path class="cls-3" d="M285.24,312.66c1.33,1.62.49,8.88.49,8.88l-3.67,6.08s.22,3.92.24,9.21l-6.28,2a3.6,3.6,0,0,1-4.66-3.54l1.07-34.44,14.41,5.51c-1.23.85.11,2.93.11,2.93S283.91,311.05,285.24,312.66Z"/><path class="cls-5" d="M290,296.29s-1,6.25-3.42,6.62-3.55,10.1-6,9.76-.83-9.06-.74-10.75-2.66-8.69-.6-10.28,8.56,0,8.56,0Z"/><path class="cls-4" d="M295.22,248.19l4.62-9.32s1.83,7.1,1.83,10.89,2.57,4.17,2.57,4.17,2.82,3.33,1.33,5.75-2.08,8.45-2.08,8.45.49,11.5-1.72,13.09-2.66,5.39-2.66,5.39-4,7.22-3.92,8.93-5.62,13.34-5.62,13.34,2.81-14.44-13.59-20.68c0,0-.12-4.91,1.1-6.25s3.13-2,1.94-8.75-.35-14.91-.35-16.54,3.67-11.79,3.67-11.79Z"/><path class="cls-3" d="M297.22,237.54l4,1.33s1.84,7.1,1.84,10.89,2.57,4.17,2.57,4.17,2.81,3.33,1.33,5.75-2.08,8.45-2.08,8.45.49,11.5-1.71,13.09-2.7,5.39-2.7,5.39-4,7.22-3.91,8.93S291,308.88,291,308.88s2.82-14.44-13.59-20.68c0,0-.12-4.91,1.11-6.25s3.13-2,1.93-8.75-.34-14.91-.34-16.54,3.67-11.79,3.67-11.79Z"/><path class="cls-4" d="M208.17,479s6.43-4,10.65-1.11S208.17,479,208.17,479Z"/><path class="cls-4" d="M258.11,466.46a13,13,0,0,1,10.46,4.41C273.35,476,258.11,466.46,258.11,466.46Z"/><g class="cls-9"><path d="M266.43,144.73a10,10,0,0,0-2.42,2.15,25.77,25.77,0,0,0-.85,2.66c-.37.87-1.45,1.57-2.21,1-.17-6-3.12-11.61-6.75-16.4a16.62,16.62,0,0,0-3.65-3.79,7.2,7.2,0,0,0-5-1.41c-2,.28-3.75,1.63-5.77,1.8-2.66.22-5.05-1.62-7.69-1.71a7.51,7.51,0,0,0-5.64,2.63,15.42,15.42,0,0,0-3,5.6,33.32,33.32,0,0,0-1.69,9.69c0,1.86-.21,4.17-1.93,4.86a9.14,9.14,0,0,1,0,1.48c1.73-.66,1.91-3,1.95-4.87a32.55,32.55,0,0,1,1.69-9.68,15.25,15.25,0,0,1,3-5.62,7.56,7.56,0,0,1,5.64-2.62c2.67.09,5.06,1.93,7.69,1.71,2-.17,3.77-1.53,5.77-1.8a7.18,7.18,0,0,1,5,1.41,16.62,16.62,0,0,1,3.65,3.79c3.63,4.78,6.58,10.39,6.76,16.39.75.55,1.83-.17,2.21-1a24.22,24.22,0,0,1,.85-2.66,9.54,9.54,0,0,1,2.41-2.14c2.08-1.79,2.6-4.8,2.52-7.54v-.25C268.83,140.79,268.2,143.2,266.43,144.73Z"/><path d="M217.32,144.26c-1.53-1.68-3.62-2.81-5-4.59a9.7,9.7,0,0,1-1.94-5.45,10.22,10.22,0,0,0,1.94,6.91c1.4,1.79,3.49,2.92,5,4.6a10,10,0,0,1,2.51,5.93A10,10,0,0,0,217.32,144.26Z"/><path d="M270.25,124.18c-.39,1.63-1.09,3.18-1.41,4.82a15.45,15.45,0,0,0-.2,3.33,13.16,13.16,0,0,1,.2-1.89c.32-1.65,1-3.2,1.41-4.83a8,8,0,0,0,.22-2.75A8.66,8.66,0,0,1,270.25,124.18Z"/></g><ellipse class="cls-1" cx="88.3" cy="495.59" rx="64.82" ry="10.41"/><rect class="cls-10" x="86.22" y="296.14" width="4.17" height="93.92"/><path class="cls-7" d="M116.6,389.77l-.25,4.23-.38,6-.15,2.49-.37,6-.16,2.49-.37,6-4.2,67.9a11.51,11.51,0,0,1-11.49,10.79H77.37A11.49,11.49,0,0,1,65.9,484.84l-4.19-67.95-.37-6-.15-2.49-.37-6-.16-2.49-.37-6L60,389.72a6,6,0,0,1,5.64-6.31h45.06a5.94,5.94,0,0,1,5.9,6C116.62,389.52,116.61,389.64,116.6,389.77Z"/><polygon class="cls-11" points="116.34 394 115.97 399.97 60.64 399.97 60.26 394 116.34 394"/><polygon class="cls-11" points="115.82 402.46 115.45 408.43 61.16 408.43 60.79 402.46 115.82 402.46"/><polygon class="cls-11" points="115.29 410.93 114.93 416.89 61.69 416.89 61.31 410.93 115.29 410.93"/><path class="cls-6" d="M53.9,331.34c24.29,17.58,34.42,45.06,34.42,45.06s-29.27-1-53.56-18.58S.34,312.77.34,312.77,29.6,313.76,53.9,331.34Z"/><path class="cls-12" d="M.32,312.77s30.39,16.86,40.14,30.82S88.32,376.4,88.32,376.4"/><path class="cls-6" d="M69.58,295.93c13.22,9.56,18.74,24.53,18.74,24.53s-15.93-.55-29.15-10.11-18.75-24.53-18.75-24.53S56.35,286.37,69.58,295.93Z"/><path class="cls-12" d="M40.42,285.82S57,295,62.27,302.6s26,17.86,26,17.86"/><path class="cls-6" d="M107.52,319.7c-15.19,16.69-18.4,38.5-18.4,38.5s21.41-5.25,36.59-21.95,18.4-38.51,18.4-38.51S122.7,303,107.52,319.7Z"/><path class="cls-12" d="M144.12,297.75s-19.79,17.11-24.81,28.9S89.12,358.2,89.12,358.2"/><path class="cls-13" d="M665.05,313.82s-11-54.64-6.78-61.44c0,0,.15-6.32-.1-14.38v-.92a20.33,20.33,0,0,0,2.31,1.33A18.68,18.68,0,0,0,673.05,240l-3.32-3.7a6.24,6.24,0,0,1-1.81-3,6.38,6.38,0,0,1,.72-3.26c3.16-8,3.33-18-2.76-24.11-5.14-5.13-6.39-11.74-12-16.42-4.08-3.42-6.32-8.44-8.44-13.3a75.45,75.45,0,0,1-4.62-12.59c-.8-3.4-1.11-6.92-2.21-10.24s-3.16-6.55-6.37-8a24.9,24.9,0,0,1-3.46-1.53c-1.37-.92-2.19-2.42-3.18-3.74-5-6.65-21.91-2.74-29.89,0a16.83,16.83,0,0,0-5.91,3.27l.08-.12.2-.3a10.61,10.61,0,0,0-2.24,2.49c-1.16,1.85-1.65,4-2.62,6-1.17,2.36-7.68,9-4.88,11.61a2.42,2.42,0,0,0,.66.43,5.83,5.83,0,0,0,3.33.33l-.12.29a19.2,19.2,0,0,0-1.44,7.37,20.19,20.19,0,0,0,26.31,18.84c0,.26.08.51.13.76a1.57,1.57,0,0,0,0,.3h0l-.36.49a.16.16,0,0,0-.06-.08l-10.44,14.59c-1.6,1.13-10.79,7.78-11.31,12.77-.55,5.46-1.09,11.85-1.09,11.85l-.07,1.37a4.1,4.1,0,0,1-3.33.9c-3.26-.53-3.26,12-3.26,12s-2.17,2-3.66.26-5.43,4.14-5.43,4.14l-24.68,1.06h0l-.56,0-1.34-4.12a1.74,1.74,0,0,0-2.17-1.11l-.3.13-.09,0-.18.12-.08.08-.14.14-.08.1,0,0h0a1.68,1.68,0,0,0-.24,1.49l1.15,3.53c-4.76,1-9.63,3.66-5.66,11.09l-20.13-3.71,6.51,5.46,33.62,6.94c-.44.8-.15,2,1.24,3.59,6,7,16.9,8.94,21.29,9.43a37.67,37.67,0,0,0,4.32,7.32l-.38,7s-11.12,53.39-13.16,56.1a32.65,32.65,0,0,0,2.82-3.71c-3.23,11-7.74,26-8.92,28.24-1.91,3.59-3.67,18.12-1.5,19.06.67.28,2.57.14,5.28-.06v1.2l-.12,45.63s.55,28-1,30.66-1.89,8.26-1.89,8.26-6,11-10.74,15.47a.47.47,0,0,1-.1.1l-.15-1s-5.7,7.2-18.31,6.79c0,0-7.59,4.94,3.66,5.2s25.64-.4,25.64-.4,10-15.3,18.44-13.3v11.59h2.58V496.27a10.54,10.54,0,0,0,4.58-6.94,8.41,8.41,0,0,0-3-7.8,5,5,0,0,1-1.64-3.65l-.09.08a6,6,0,0,0-.09-.71c-.74-6-1.66-18.35,1.6-27.49,4.48-12.53,5.84-30,2.58-40.38a92.65,92.65,0,0,1-2.59-10.12c-.08-.43-.15-.84-.22-1.23a53,53,0,0,1,6.61,1.33c7.55,2.09,24.07,2.47,38.17,2.36,0,.38.07.79.12,1.2a43.47,43.47,0,0,0,1.57,8.32c1.77,5.33,2.58,28.79,2.58,28.79s2.28,19.29,1,27.14c-.67,4.37-1.33,8.75-1.71,13.16v.08s-3.74,10.65-6.47,16.43l-.21.43a8.54,8.54,0,0,0-2.13.47s-3.67,7.32-7.32,8.53-2.44,5.2,5.83,3.73,20.75-2.66,20.75-2.66l.54-7.46L648,496.7l-.66,7.44,2.7-.53-.36-9.05,4.16-5.21s5-4.47-2.44-13.26v.19c-.08-.13-.15-.26-.24-.39v0c-1.24-1.91-2.22-5.48-.42-11.82,3.26-11.46,5.16-21.86,5.16-21.86s7.28-27.85-1.47-41h.38a22.41,22.41,0,0,1-1.88-5.86c0-.23-.08-.48-.12-.73,6.47-.38,12.83-1.55,18-4.08C670.75,390.45,667.63,324.35,665.05,313.82Zm-82.18-46.1v.13l-1.33.07Zm-4.57.63a1.48,1.48,0,0,0-.59.29,5.91,5.91,0,0,0-1.05,2.73l-2.07-.46s-1.46-.32-3.56-.67l-1-1C572.77,269,575.6,268.68,578.3,268.35Z"/><polygon class="cls-14" points="646.98 494.65 646.19 504.07 648.84 503.54 648.44 493.32 646.98 494.65"/><path class="cls-15" d="M586.42,449.89c-3.2,9.11-2.29,21.41-1.58,27.39.27,2.21.52,3.55.52,3.55s-4.79,10.9-5.19,11.31-14.07,8.76-14.07,8.76l-9.56,5.58s-9.7-4.25-5-5.71a7.19,7.19,0,0,0,2.51-1.71c4.65-4.42,10.5-15.42,10.5-15.42s.4-5.58,1.86-8.24.93-30.55.93-30.55l.12-45.47v-5.92l18.19.13a41.81,41.81,0,0,0,.79,6,92.27,92.27,0,0,0,2.53,10.08C592.13,420,590.8,437.4,586.42,449.89Z"/><path class="cls-4" d="M585.36,480.83s-4.79,10.9-5.19,11.31-14.07,8.76-14.07,8.76l-9.56,5.58s-9.7-4.25-5-5.71a7.19,7.19,0,0,0,2.51-1.71l.41,2.91,3.19-.14,27.27-24.54C585.11,479.49,585.36,480.83,585.36,480.83Z"/><path class="cls-14" d="M585,477.91,557.6,502.62l-3.19.13-.67-4.66s-5.57,7.18-18,6.78c0,0-7.44,4.91,3.59,5.18s25.1-.4,25.1-.4,9.83-15.3,18.06-13.3V507.9h2.53V496.24a10.53,10.53,0,0,0,4.48-6.92,8.48,8.48,0,0,0-2.93-7.77A5,5,0,0,1,585,477.91Z"/><path class="cls-15" d="M649.51,464.1c-1.77,6.32-.81,9.88.4,11.79v0a21.53,21.53,0,0,1,3.18,7.76l.11.6-12.48,18.2L634,505.15s-10.89-3.72-8.9-4.79c.5-.26,1.27-1.64,2.17-3.55,2.66-5.75,6.33-16.37,6.33-16.37v-.09c.38-4.38,1-8.75,1.68-13.1,1.21-7.83-1-27.05-1-27.05s-.8-23.37-2.53-28.69a43.81,43.81,0,0,1-1.55-8.28c-.36-3.32-.44-6.06-.44-6.06s7.17-10,20.32.8a14.37,14.37,0,0,1,2.74,3c9.09,12.92,1.77,41.38,1.77,41.38S652.69,452.68,649.51,464.1Z"/><path class="cls-4" d="M653.22,484.29l-12.48,18.2L634,505.15s-10.89-3.72-8.9-4.79c.5-.26,1.27-1.64,2.17-3.55,4.61,0,7,4.35,7,4.35l5.84-.93s7.71-15.14,9.44-16.07.26-6.91.26-6.91v-1.52l.14.16v0a21.58,21.58,0,0,1,3.18,7.77Z"/><path class="cls-14" d="M634.63,501.55s-3.32-6.1-9.7-3.85c0,0-3.58,7.32-7.17,8.5s-2.39,5.18,5.72,3.72,20.31-2.66,20.31-2.66l.54-7.44,8.23-10.49s4.91-4.45-2.39-13.22v1.53s1.46,6-.27,6.91-9.41,16.07-9.41,16.07Z"/><path class="cls-4" d="M585.62,393.57a41.44,41.44,0,0,0,.79,6,83.26,83.26,0,0,0-19-.19v-5.93Z"/><path class="cls-4" d="M653.49,402.6s-10.64.52-23.33.63c-.36-3.33-.44-6.07-.44-6.07s7.17-10,20.31.8a14.15,14.15,0,0,1,2.75,3C653,401.51,653.23,402.06,653.49,402.6Z"/><path class="cls-14" d="M653.49,401.41s-46.62,2.25-60.83-1.73-28.29-.54-30.41-1.46-.4-15.41,1.46-19,12.08-39.85,12.08-39.85l9.83-51.27L596,285.26l.73-.21,18-5L628,276.42s26.29,102.67,24,110.24a19.45,19.45,0,0,0-.39,8.91A22.7,22.7,0,0,0,653.49,401.41Z"/><path class="cls-16" d="M551.35,253.05s-9.32,10-2.26,15.54,11.69.53,11.69.53Z"/><path class="cls-4" d="M551.35,253.05s-9.32,10-2.26,15.54,11.69.53,11.69.53Z"/><path class="cls-15" d="M626.6,187.44s-1.09,1-2.74,2.57c-2.34,2.19-5.81,5.39-8.88,8.07-4.26,3.71-7.77,6.43-6.51,4.1s1-6.36.39-10.15c-.05-.25-.09-.5-.13-.75a70.56,70.56,0,0,0-2.06-8.22s6.88-8.89,10.69-12.4c1.41-1.33,2.4-1.87,2.46-.95a31.06,31.06,0,0,0,2.16,6.91c0,.09.07.18.11.27.77,2,1.64,4.05,2.4,5.82C625.67,185.42,626.6,187.44,626.6,187.44Z"/><path class="cls-4" d="M622.09,176.89A19.75,19.75,0,0,1,608.86,192a69.4,69.4,0,0,0-2.19-9s13-16.73,13.15-13.35C619.87,171,620.88,173.84,622.09,176.89Z"/><path class="cls-4" d="M607.57,196.5l1.68-2.36s1.11,6.77,5.19,3.79,4.29,22.48,4.29,22.48L614.34,286l-31.68-1.9.9-31.67,3.59-16L596,213.21l5.28-7.67Z"/><path class="cls-14" d="M618.73,220.81l-4,59.27-.41,6.28-17.67-1.06-.66,0-13.31-.8.9-31.68,3.59-16L596,213.61l5.28-7.67,6.28-9.07,1.68-2.36s1.11,6.78,5.19,3.79l.09-.06h0C618.54,195.71,618.73,220.81,618.73,220.81Z"/><path class="cls-3" d="M587.61,231.27s-1.59,3.33-4.78,2.79-3.19,12-3.19,12-2.12,2-3.58.27-5.33,4.12-5.33,4.12l-24.17,1.06s10.76,4.92,8.65,19.79c0,0,36.52-2.26,37.72-5.71S587.61,231.27,587.61,231.27Z"/><path class="cls-17" d="M587.61,231.27s-1.59,3.33-4.78,2.79-3.19,12-3.19,12-2.12,2-3.58.27-5.33,4.12-5.33,4.12l-24.17,1.06s10.76,4.92,8.65,19.79c0,0,36.52-2.26,37.72-5.71S587.61,231.27,587.61,231.27Z"/><polygon class="cls-3" points="517.35 259.3 523.73 264.74 576.19 275.76 569.68 269.12 517.35 259.3"/><path class="cls-3" d="M607.67,198.6c-.87,1.33-3.37,8.14-5.45,14.09-1.74,5-3.19,9.31-3.19,9.31s-3.38,22.05-5.11,26-.79,19.53-.79,19.53l-6.45,38.38s-2.92,19.79-7.43,31.61c-4.45,11.64-9.41,17.09-9.56,17.27,2-2.7,12.87-55.89,12.87-55.89l3.6-67.07s.52-6.37,1.05-11.82,11.31-12.89,11.31-12.89l10.39-14.77C610,193.78,609.26,196.21,607.67,198.6Z"/><path class="cls-15" d="M580.57,284.8s-15.3-.67-22.71-9.57S575,271.68,575,271.68l6.38,1.46Z"/><path class="cls-4" d="M652,386.67a19.45,19.45,0,0,0-.39,8.91c-16.69,1.18-34.54-3.33-34.54-3.33-3.33,3.06-12.09,7.57-12.09,7.57l-4.78-59.21c-3.05-8-4.25-49.81-4.25-49.81s.27-2.18.67-5.46a.72.72,0,0,1,0-.25c1.19-9.16,3.55-26.36,4.71-28.68,1.6-3.19-4.91-11.69-4.91-11.69l3-25.24.36-3c6.24-2.79,11-11.69,11-11.69l3.68-6.43h0c4-2.56,4.19,22.54,4.19,22.54l-4,59.26,13.23-3.65S654.28,379.1,652,386.67Z"/><path class="cls-3" d="M669.16,390.76c-18.19,9-51.27.67-51.27.67-3.32,3.06-12.08,7.57-12.08,7.57L601,339.79c-3-8-4.24-49.81-4.24-49.81s3.84-31.21,5.44-34.39c.47-.94.24-2.32-.31-3.81A48.21,48.21,0,0,1,599,229.5l1.28-10.85.35-3c6.25-2.79,11-11.7,11-11.7l3.33-5.82,6.12-10.74,2.9-5.08.49.44,3.76,3.41,4,3.33c5.21,4.39,14.21,12.12,18.86,16.85,4.08,4.16,5.37,20.36,5.75,32.55.24,8,.1,14.33.1,14.33-4.12,6.78,6.65,61.2,6.65,61.2C666.11,324.9,669.16,390.76,669.16,390.76Z"/><path class="cls-17" d="M634.23,203.78s-12.48,23.77-11,32.81,5.57,19.26,3.58,21.64a7.31,7.31,0,0,1-5.84,2.92c-2,.14-7.32,3.86-7.32,4.26s-4.92.39-9.32,2.26a58.05,58.05,0,0,1-10.89,2.92s-12.64-.4-13.81.8-2.39,8.36.13,14.07,5.32,10,7.44,10.76,15.54-3.72,26.43-4.78,22.71-9.7,22.71-9.7,13-4.65,15.3-12.48-2.79-50.87-2.79-50.87S645,198.33,634.23,203.78Z"/><path class="cls-17" d="M632.64,201.79s-12.49,23.77-11,32.8,5.58,19.26,3.58,21.65a7.29,7.29,0,0,1-5.84,2.92c-2,.14-7.32,3.86-7.32,4.26s-4.91.4-9.31,2.25a58.26,58.26,0,0,1-10.89,2.92s-12.64-.4-13.81.8-2.4,8.37.13,14.08,5.32,10,7.44,10.75,15.54-3.71,26.43-4.77,22.71-9.7,22.71-9.7,13-4.66,15.27-12.48-2.79-50.88-2.79-50.88S643.39,196.34,632.64,201.79Z"/><path class="cls-3" d="M633.84,202.58s-12.49,23.78-11,32.81,5.57,19.26,3.58,21.65a7.29,7.29,0,0,1-5.84,2.92c-2,.14-7.32,3.86-7.32,4.25s-4.91.4-9.32,2.26A58.26,58.26,0,0,1,593,269.39s-12.64-.4-13.81.8-2.39,8.37.13,14.08,5.32,10,7.44,10.75,15.54-3.72,26.43-4.78,22.71-9.69,22.71-9.69,13-4.66,15.3-12.49-2.75-50.87-2.75-50.87S644.59,197.17,633.84,202.58Z"/><path class="cls-4" d="M633.57,266.36s-10-2-6.51,1.33,3.45,6.24,7.71,6.1S633.57,266.36,633.57,266.36Z"/><path class="cls-4" d="M650.43,337.93S645.92,341,654.55,348,650.43,337.93,650.43,337.93Z"/><path class="cls-4" d="M641.82,363c0,.4-1.59,14.63,4.38,18.19S641.82,363,641.82,363Z"/><path class="cls-15" d="M547,251.45c-4.82.16-15.22,1.63-9.83,11.7,4.77,8.91,12.79,3,17.3-1.56A17,17,0,0,0,547,251.45Z"/><path class="cls-15" d="M554.5,261.51l.2-.21Z"/><path class="cls-4" d="M632.24,189.85c-5.1,3.49-9.39,6.44-10.23,7.05-2.29,1.7-6.65,11.66-9.46,16.74-2.25,4.09-9.53,5.14-12.28,5.4l.35-3c6.25-2.79,11-11.69,11-11.69L624,182.66l4.25,3.86Z"/><path class="cls-18" d="M632.24,189.45c-5.1,3.49-9.39,6.44-10.23,7.06-2.29,1.69-6.65,11.65-9.46,16.73-2.25,4.09-9.53,5.14-12.28,5.4l.35-3c6.25-2.79,11-11.69,11-11.69L624,182.26l4.25,3.85S629.85,187.43,632.24,189.45Z"/><path class="cls-15" d="M622.41,172.5a19.73,19.73,0,1,1-8.55-16.25A19.75,19.75,0,0,1,622.41,172.5Z"/><path class="cls-4" d="M656.85,238.86a17.4,17.4,0,0,1-6.37-6.84c-1.11-2.19-1.85-4.73-3.75-6.28-1.71-1.4-4-1.74-6.12-2.37-7-2.07-12.86-8.45-13.08-15.74-.11-3.44,1-6.86.48-10.26a11.28,11.28,0,0,0-2.23-5.29,17.06,17.06,0,0,0-1.92-2.07c-.93-.88-1.91-1.73-2.76-2.66a10.47,10.47,0,0,1-1.4-1.9,9.45,9.45,0,0,1-.76-1.76c-1.33-4.07-.12-8.9-1.58-13l-.08-.22c-.56-1.47-1.68-2.93-3.24-3s-2.9,1.19-4.39,1.77c-3.12,1.21-6.49-.85-9.09-3s-5.54-4.5-8.84-4c-2.19.31-3.92,1.8-5.94,2.57a8.34,8.34,0,0,1-1.4.41A19.73,19.73,0,0,1,622,176.63c0,.09.07.17.11.27.77,2,1.64,4,2.4,5.81l3.76,3.41,4,3.33c5.21,4.39,14.21,12.12,18.86,16.85C655.18,210.47,656.46,226.67,656.85,238.86Z"/><path class="cls-19" d="M585.55,152.6c1-1.94,1.42-4.11,2.56-5.94,1.67-2.67,4.58-4.37,7.58-5.4,7.82-2.69,24.33-6.61,29.27,0a14.51,14.51,0,0,0,3.12,3.73,24.12,24.12,0,0,0,3.39,1.52c3.14,1.48,5.15,4.7,6.22,8s1.39,6.81,2.18,10.2a75.19,75.19,0,0,0,4.52,12.55c2.07,4.83,4.27,9.84,8.26,13.26,5.45,4.65,6.65,11.25,11.71,16.36,6,6.06,5.79,16.07,2.7,24a6.68,6.68,0,0,0-.7,3.25,6.39,6.39,0,0,0,1.76,3l3.28,3.69a18.42,18.42,0,0,1-20.12-9.27c-1.11-2.2-1.84-4.73-3.75-6.29-1.7-1.4-4-1.73-6.11-2.36-7-2.07-12.87-8.46-13.09-15.76-.1-3.42,1-6.85.48-10.24a11.29,11.29,0,0,0-2.23-5.32c-1.83-2.39-4.59-4-6.08-6.66-2.52-4.45-.6-10.23-2.42-15-.56-1.47-1.68-2.93-3.24-3s-2.9,1.18-4.4,1.76c-3.11,1.21-6.48-.85-9.08-3s-5.53-4.51-8.85-4c-2.18.31-3.91,1.8-5.92,2.58-1.49.57-4.51,1.08-5.82-.17C578,161.53,584.4,155,585.55,152.6Z"/><path class="cls-4" d="M653.13,229.36c-1.11-2.19-1.85-4.72-3.75-6.28-1.7-1.4-4-1.74-6.12-2.36-7-2.07-12.86-8.46-13.08-15.75-.11-3.43,1-6.86.48-10.26a11.29,11.29,0,0,0-2.23-5.28c-1.83-2.39-4.59-4-6.08-6.66-2.52-4.44-.6-10.22-2.43-15-.55-1.45-1.67-2.92-3.23-3s-2.91,1.19-4.4,1.77c-3.11,1.21-6.48-.85-9.08-3s-5.54-4.5-8.85-4c-2.18.31-3.91,1.8-5.92,2.58-1.49.57-4.52,1.09-5.82-.17-2.75-2.66,3.63-9.21,4.78-11.57,1-1.94,1.42-4.1,2.57-5.94.06-.1.12-.2.19-.3a10.62,10.62,0,0,0-2.19,2.49c-1.14,1.83-1.61,4-2.56,5.94-1.15,2.35-7.53,8.93-4.78,11.57,1.33,1.26,4.32.74,5.81.17,2-.78,3.74-2.27,5.93-2.57,3.32-.48,6.25,1.93,8.85,4s6,4.16,9.08,3c1.49-.58,2.8-1.88,4.39-1.76s2.67,1.58,3.24,3c1.82,4.78-.1,10.56,2.43,15,1.49,2.61,4.25,4.25,6.08,6.65a11.33,11.33,0,0,1,2.23,5.32c.48,3.4-.59,6.82-.48,10.25.22,7.32,6.08,13.68,13.08,15.76,2.11.62,4.41,1,6.12,2.35,1.91,1.57,2.66,4.09,3.75,6.29a18.4,18.4,0,0,0,20.11,9.27l-1.54-1.74A18.61,18.61,0,0,1,653.13,229.36Z"/><path class="cls-4" d="M607.27,199c-.87,1.33-3.37,8.14-5.45,14.09-2-.76-3.72-5.6-3.72-5.6l10.39-14.78C609.56,194.18,608.86,196.6,607.27,199Z"/><path class="cls-18" d="M607.67,198.6c-.87,1.33-3.37,8.14-5.45,14.09-2-.75-3.72-5.6-3.72-5.6l10.39-14.77C610,193.78,609.26,196.21,607.67,198.6Z"/><path class="cls-20" d="M547.25,266.56l-5.76-18.17a1.69,1.69,0,0,1,1.1-2.13h0a1.7,1.7,0,0,1,2.13,1.1l5.76,18.15-.57,3.8Z"/><path class="cls-21" d="M542,246.8h0a1.7,1.7,0,0,1,2.14,1.1l5.76,18.15-.43,2.85.42.44.57-3.8-5.79-18.15a1.7,1.7,0,0,0-2.13-1.1h0a1.68,1.68,0,0,0-.89.66A2.63,2.63,0,0,1,542,246.8Z"/><polygon class="cls-22" points="547.25 266.56 550.48 265.54 550.01 268.65 549.91 269.34 548.97 268.35 547.25 266.56"/><path class="cls-23" d="M549,268.35a.55.55,0,0,1,.2-.17.31.31,0,0,1,.32,0,.78.78,0,0,1,.11.18.56.56,0,0,0,.41.27l-.1.67Z"/><path class="cls-15" d="M541.46,254.85s11.55-.07,8.83,4.85a10.42,10.42,0,0,1-7,5.51Z"/><path class="cls-6" d="M469.59,34.21h-.5a56.92,56.92,0,0,0-47.51,26,56.9,56.9,0,0,0-47.5-26h-.5a56.55,56.55,0,0,0-56,56.52c0,18.5,8.1,44.75,23.9,66.35,30.1,41.16,80.11,77.17,80.11,77.17s50-36,80.11-77.17c15.8-21.6,23.9-47.85,23.9-66.35A56.55,56.55,0,0,0,469.59,34.21Z"/><path class="cls-3" d="M427.58,86.18a6.24,6.24,0,0,0-12,0c-9.61,32.41-30.16,41.21-30.16,64.06a36.16,36.16,0,1,0,72.31,0C457.73,127.28,437.23,118.74,427.58,86.18Zm-6,87.49a23,23,0,0,1-23-23,3.29,3.29,0,1,1,6.57,0,16.46,16.46,0,0,0,16.44,16.43,3.29,3.29,0,1,1,0,6.57Z"/></g></g></svg>