<svg xmlns="http://www.w3.org/2000/svg" viewBox="0 0 370.71 300"><defs><style>.cls-1{fill:#e6e6e6;}.cls-2{fill:#3f3d56;}.cls-3{fill:#2f2e41;}.cls-4{fill:#a0616a;}.cls-5{fill:#363062;}.cls-6{fill:#fff;}</style></defs><title>info</title><g id="Layer_2" data-name="Layer 2"><g id="layer1"><path class="cls-1" d="M147.79,35.48,150,26.7a115.42,115.42,0,0,1,12.1-4.34l.28,4.08L163.53,22c5.1-1.46,8.56-2.1,8.56-2.1s-4.68,17.81-14.51,31.43l-11.44,2L155,54.58a46.52,46.52,0,0,1-4,4.21c-14.29,13.27-30.21,19.36-35.56,13.6s1.91-21.18,16.21-34.45a60.83,60.83,0,0,1,15.56-10Z"/><path class="cls-1" d="M126.61,26,124,17.28a113.82,113.82,0,0,1,8.11-10l2.35,3.35-1.35-4.44C136.7,2.34,139.34,0,139.34,0s5.2,17.67,3.83,34.41l-8.76,7.64,8.27-3.5a47.52,47.52,0,0,1-1.22,5.66c-5.38,18.75-15.86,32.19-23.41,30s-9.32-19.12-3.94-37.86a61,61,0,0,1,8.15-16.62Z"/><path class="cls-1" d="M299.32,254.22l2.22-8.78a115.42,115.42,0,0,1,12.1-4.34l.28,4.08,1.14-4.49c5.1-1.46,8.57-2.1,8.57-2.1S318.94,256.4,309.12,270l-11.45,2,8.89,1.29a46.52,46.52,0,0,1-4,4.21c-14.29,13.27-30.21,19.36-35.56,13.6s1.91-21.18,16.21-34.45a60.45,60.45,0,0,1,15.57-10Z"/><path class="cls-1" d="M278.14,244.69,275.51,236a113.82,113.82,0,0,1,8.11-10L286,229.4,284.62,225c3.62-3.88,6.25-6.22,6.25-6.22s5.2,17.67,3.83,34.41l-8.76,7.64,8.27-3.5A43.88,43.88,0,0,1,293,263c-5.38,18.75-15.86,32.19-23.41,30s-9.32-19.12-3.94-37.86a60.84,60.84,0,0,1,8.15-16.62Z"/><rect class="cls-2" x="0.02" y="292.37" width="370.69" height="0.94"/><path class="cls-3" d="M220.83,101.05,224,132.36h26.06l-1.26-47.59c0-10.24-7.08-19.2-17.32-19.2s-16.91,8.54-16.91,18.78l-1.67,48h4.25Z"/><path class="cls-4" d="M211.43,130.9l-2.5,21.71-6.68,31.3s-5,14.61,0,14.61,5-14.61,5-14.61l6.68-18.36,4.59-33.82Z"/><path class="cls-3" d="M210.6,168.05s-2.51,12.52.83,30.89,4.18,26.3,4.18,26.3-2.51,2.92-.84,4.59,0,5,0,5l2.92,28.39,12.95-2.09-.84-25.88s1.67-3.34.84-4.18.83-5.84.83-5.84l2.09-39.66L246.5,229s-1.25,1.67,0,2.92,3.76,7.51,3.76,7.51l8.34,29.22,13.36-2.5-7.51-33.4s.83-2.08-.42-3.33a3.28,3.28,0,0,1-.83-2.93s1.25-1.25-.42-2.92-2.51-8.35-2.51-8.35-1.25-44.66-5.42-47.17S210.6,168.05,210.6,168.05Z"/><path class="cls-3" d="M219.36,261.56l2.09,17.95-.83,7.93S211,300.8,222.7,300s7.94-5.84,7.94-5.84l3.55-2.27A1.84,1.84,0,0,0,235,290c-.42-2.37-1.45-7.62-2.71-10.47-1.67-3.76-2.51-19.2-2.51-19.2Z"/><path class="cls-3" d="M269.62,260.5l2.46,17.9,2.78,7.47s12.63,10.55,1.1,12.65-9.14-3.68-9.14-3.68l-4-1.31a1.82,1.82,0,0,1-1.26-1.61c-.19-2.4-.5-7.74,0-10.81.69-4.06-2.35-19.23-2.35-19.23Z"/><circle class="cls-4" cx="231.47" cy="82.89" r="11.69"/><path class="cls-4" d="M225.63,91.24s3.34,11.27,0,14.61a39.4,39.4,0,0,0-4.18,4.59l9.6,13,16.7-20.46S236.06,99.59,239,90.41Z"/><path class="cls-1" d="M231.05,118,246,102.25s8.48-1,11,1.52l-2.5,50.51s1.67,1.25.83,4.17a12,12,0,0,0,0,5.84s2.51,2.93,1.26,4.18-46.34.42-46.34.42-1.67-2.93.84-4.6,1.25-6.26,1.25-6.26-.84-1.25,1.25-3.34,3.76-19.2,3.76-19.2l-5.43-20.87s5.46-6.17,11.71-6.63Z"/><path class="cls-1" d="M251.51,103.77h5.42s1.26,0,2.51,4.17,2.92,14.61,2.92,14.61l-11.69,1.25Z"/><path class="cls-4" d="M261.53,120.88l.83,23.38.84,35.06s5.42,14.61-1.26,15-5-15.86-5-15.86l-5.42-56.36Z"/><path class="cls-1" d="M213.52,115l-1.67-.42s-3.76,7.51-4.17,14.19l-.42,2.51L220.2,133Z"/><path class="cls-3" d="M221.66,81c7.55-4.07,10.65-3.9,20,0l2.5-6.11a4.33,4.33,0,0,0-4.33-4.33h-16.8a4.33,4.33,0,0,0-4.33,4.33Z"/><polygon class="cls-2" points="17.27 61.27 108.08 61.27 108.08 44 0 44 0 152.09 17.27 152.09 17.27 61.27"/><polygon class="cls-2" points="122.57 166.02 31.76 166.02 31.76 183.29 139.84 183.29 139.84 75.2 122.57 75.2 122.57 166.02"/><rect class="cls-5" x="9.47" y="52.92" width="121.46" height="121.46"/><rect class="cls-6" x="29.59" y="76.87" width="14.44" height="1.2"/><rect class="cls-6" x="48.84" y="76.87" width="14.44" height="1.2"/><rect class="cls-6" x="76.82" y="88.01" width="14.44" height="1.2"/><rect class="cls-6" x="96.37" y="88.01" width="14.44" height="1.2"/><rect class="cls-6" x="68.39" y="76.87" width="42.42" height="1.2"/><rect class="cls-6" x="29.59" y="88.01" width="42.42" height="1.2"/><rect class="cls-6" x="29.59" y="99.14" width="42.42" height="1.2"/><rect class="cls-6" x="81.33" y="99.14" width="29.48" height="1.2"/><rect class="cls-6" x="29.59" y="117.55" width="14.44" height="1.2"/><rect class="cls-6" x="48.84" y="117.55" width="14.44" height="1.2"/><rect class="cls-6" x="76.82" y="128.68" width="14.44" height="1.2"/><rect class="cls-6" x="96.37" y="128.68" width="14.44" height="1.2"/><rect class="cls-6" x="68.39" y="117.55" width="42.42" height="1.2"/><rect class="cls-6" x="29.59" y="128.68" width="42.42" height="1.2"/><rect class="cls-6" x="29.59" y="139.81" width="42.42" height="1.2"/><rect class="cls-6" x="81.33" y="139.81" width="29.48" height="1.2"/></g></g></svg>