<svg xmlns="http://www.w3.org/2000/svg" viewBox="0 0 81.07 77.96"><defs><style>.cls-1{fill:#363062;}.cls-2{fill:#fff;}</style></defs><title>logo</title><g id="Layer_2" data-name="Layer 2"><g id="layer1"><path class="cls-1" d="M59.25,0h-.2A22.15,22.15,0,0,0,40.54,10.14,22.17,22.17,0,0,0,22,0h-.19A22,22,0,0,0,0,22c0,7.21,3.16,17.44,9.32,25.86C21.05,63.93,40.54,78,40.54,78S60,63.93,71.76,47.89c6.16-8.42,9.31-18.65,9.31-25.86A22,22,0,0,0,59.25,0Z"/><path class="cls-2" d="M42.88,20.25a2.43,2.43,0,0,0-4.68,0c-3.75,12.63-11.75,16.07-11.75,25a14.09,14.09,0,1,0,28.18,0C54.63,36.27,46.64,32.94,42.88,20.25Zm-2.34,34.1a9,9,0,0,1-9-9,1.28,1.28,0,1,1,2.56,0,6.41,6.41,0,0,0,6.41,6.4,1.28,1.28,0,0,1,0,2.56Z"/></g></g></svg>